<svg id="svg" version="1.1" xmlns="http://www.w3.org/2000/svg" xmlns:xlink="http://www.w3.org/1999/xlink" width="400" height="400" viewBox="0, 0, 400,400"><g id="svgg"><path id="path0" d="M104.813 92.103 C 102.510 93.819,102.000 95.749,102.000 102.750 C 102.000 111.931,103.520 114.500,108.952 114.500 L 111.500 114.500 111.500 180.553 C 111.500 241.383,111.436 246.582,110.686 246.294 C 105.605 244.345,98.240 244.591,93.362 246.874 C 75.304 255.324,76.817 281.180,95.743 287.582 L 98.250 288.430 98.389 295.215 L 98.528 302.000 86.264 302.000 C 72.412 302.000,72.000 302.108,72.000 305.750 C 72.000 309.919,57.715 309.500,200.000 309.500 C 342.285 309.500,328.000 309.919,328.000 305.750 C 328.000 302.128,327.529 302.000,314.236 302.000 L 302.472 302.000 302.611 295.215 L 302.750 288.430 305.257 287.582 C 332.184 278.473,319.731 238.596,292.164 245.656 L 290.579 246.062 290.414 239.332 C 290.223 231.501,289.771 230.500,286.423 230.500 C 282.712 230.500,282.500 231.123,282.500 242.030 L 282.500 251.560 280.768 253.829 C 277.851 257.649,276.830 261.000,276.830 266.750 C 276.830 272.500,277.851 275.851,280.768 279.671 L 282.500 281.940 282.500 291.720 L 282.500 301.500 246.256 301.500 L 210.012 301.500 209.881 241.802 C 209.733 174.422,210.089 180.000,205.942 180.000 C 201.633 180.000,202.000 174.240,202.000 241.844 L 202.000 301.500 160.750 301.500 L 119.500 301.500 119.500 291.097 C 119.500 280.784,119.511 280.680,120.751 278.999 C 125.464 272.610,125.464 260.890,120.751 254.501 L 119.500 252.806 119.500 183.653 L 119.500 114.500 160.750 114.500 L 202.000 114.500 202.000 141.023 L 202.000 167.545 203.227 168.773 C 204.558 170.104,206.729 170.368,208.043 169.359 C 209.770 168.033,210.000 166.644,210.000 157.533 L 210.000 148.500 246.250 148.500 L 282.500 148.500 282.500 183.250 C 282.500 222.587,282.224 220.000,286.423 220.000 C 290.491 220.000,290.232 222.404,290.385 183.198 L 290.520 148.500 292.058 148.500 C 296.381 148.500,298.000 145.299,298.000 136.750 C 298.000 129.805,297.496 127.856,295.243 126.084 L 293.865 125.000 251.933 125.000 L 210.000 125.000 210.000 119.750 L 210.000 114.500 212.733 114.500 C 217.864 114.500,219.504 111.725,219.494 103.062 C 219.487 96.217,219.139 94.672,217.158 92.692 L 215.467 91.000 160.858 91.016 L 106.250 91.032 104.813 92.103 M211.500 102.750 L 211.500 107.000 160.750 107.000 L 110.000 107.000 110.000 102.750 L 110.000 98.500 160.750 98.500 L 211.500 98.500 211.500 102.750 M137.628 123.322 C 134.006 125.108,134.000 125.143,134.000 146.233 C 134.000 172.780,130.856 170.000,160.885 170.000 C 190.560 170.000,187.500 172.715,187.500 146.392 C 187.500 125.526,187.463 125.288,183.969 123.414 C 181.530 122.106,140.261 122.024,137.628 123.322 M149.500 140.000 L 149.500 149.500 145.750 149.500 L 142.000 149.500 142.000 140.000 L 142.000 130.500 145.750 130.500 L 149.500 130.500 149.500 140.000 M164.000 140.000 L 164.000 149.500 160.750 149.500 L 157.500 149.500 157.500 140.000 L 157.500 130.500 160.750 130.500 L 164.000 130.500 164.000 140.000 M179.500 140.000 L 179.500 149.500 175.750 149.500 L 172.000 149.500 172.000 140.000 L 172.000 130.500 175.750 130.500 L 179.500 130.500 179.500 140.000 M290.000 136.750 L 290.000 141.000 250.000 141.000 L 210.000 141.000 210.000 136.750 L 210.000 132.500 250.000 132.500 L 290.000 132.500 290.000 136.750 M220.936 155.842 C 218.187 157.548,218.000 158.458,218.003 170.077 C 218.008 185.112,217.888 184.961,229.808 184.984 C 241.781 185.008,242.000 184.738,242.000 170.000 C 242.000 155.375,241.692 154.993,229.923 155.013 C 223.717 155.024,221.999 155.182,220.936 155.842 M251.436 155.842 C 248.687 157.548,248.500 158.458,248.503 170.077 C 248.508 185.112,248.388 184.961,260.308 184.984 C 272.281 185.008,272.500 184.738,272.500 170.000 C 272.500 155.375,272.192 154.993,260.423 155.013 C 254.217 155.024,252.499 155.182,251.436 155.842 M179.500 160.000 L 179.500 162.500 160.750 162.500 L 142.000 162.500 142.000 160.000 L 142.000 157.500 160.750 157.500 L 179.500 157.500 179.500 160.000 M234.000 170.250 L 234.000 177.500 230.000 177.500 L 226.000 177.500 226.000 170.250 L 226.000 163.000 230.000 163.000 L 234.000 163.000 234.000 170.250 M264.500 170.250 L 264.500 177.500 260.500 177.500 L 256.500 177.500 256.500 170.250 L 256.500 163.000 260.500 163.000 L 264.500 163.000 264.500 170.250 M137.628 178.822 C 134.006 180.608,134.000 180.643,134.000 201.733 C 134.000 228.280,130.856 225.500,160.885 225.500 C 190.560 225.500,187.500 228.215,187.500 201.892 C 187.500 181.026,187.463 180.788,183.969 178.914 C 181.530 177.606,140.261 177.524,137.628 178.822 M149.500 195.500 L 149.500 205.000 145.750 205.000 L 142.000 205.000 142.000 195.500 L 142.000 186.000 145.750 186.000 L 149.500 186.000 149.500 195.500 M164.000 195.500 L 164.000 205.000 160.750 205.000 L 157.500 205.000 157.500 195.500 L 157.500 186.000 160.750 186.000 L 164.000 186.000 164.000 195.500 M179.500 195.500 L 179.500 205.000 175.750 205.000 L 172.000 205.000 172.000 195.500 L 172.000 186.000 175.750 186.000 L 179.500 186.000 179.500 195.500 M220.790 190.758 C 218.157 192.750,218.007 193.514,218.003 204.923 C 217.999 219.996,218.002 220.000,230.000 220.000 C 241.682 220.000,242.000 219.603,242.000 205.000 C 242.000 190.262,241.781 189.992,229.808 190.016 C 223.555 190.028,221.535 190.195,220.790 190.758 M251.290 190.758 C 248.657 192.750,248.507 193.514,248.503 204.923 C 248.499 219.996,248.502 220.000,260.500 220.000 C 272.182 220.000,272.500 219.603,272.500 205.000 C 272.500 190.262,272.281 189.992,260.308 190.016 C 254.055 190.028,252.035 190.195,251.290 190.758 M234.000 204.750 L 234.000 212.000 230.000 212.000 L 226.000 212.000 226.000 204.750 L 226.000 197.500 230.000 197.500 L 234.000 197.500 234.000 204.750 M264.500 204.750 L 264.500 212.000 260.500 212.000 L 256.500 212.000 256.500 204.750 L 256.500 197.500 260.500 197.500 L 264.500 197.500 264.500 204.750 M179.500 215.500 L 179.500 218.000 160.750 218.000 L 142.000 218.000 142.000 215.500 L 142.000 213.000 160.750 213.000 L 179.500 213.000 179.500 215.500 M223.250 224.806 C 218.446 225.985,218.000 227.274,218.000 239.982 C 218.000 254.987,218.010 255.000,230.000 255.000 C 241.697 255.000,242.000 254.618,241.999 239.891 C 241.998 225.617,241.431 224.843,230.857 224.669 C 227.223 224.610,223.800 224.671,223.250 224.806 M253.750 224.806 C 248.946 225.985,248.500 227.274,248.500 239.982 C 248.500 254.987,248.510 255.000,260.500 255.000 C 272.197 255.000,272.500 254.618,272.499 239.891 C 272.498 225.617,271.931 224.843,261.357 224.669 C 257.723 224.610,254.300 224.671,253.750 224.806 M234.000 239.750 L 234.000 247.000 230.000 247.000 L 226.000 247.000 226.000 239.750 L 226.000 232.500 230.000 232.500 L 234.000 232.500 234.000 239.750 M264.500 239.750 L 264.500 247.000 260.500 247.000 L 256.500 247.000 256.500 239.750 L 256.500 232.500 260.500 232.500 L 264.500 232.500 264.500 239.750 M137.628 234.322 C 134.006 236.108,134.000 236.143,134.000 257.233 C 134.000 282.835,132.807 281.000,149.452 281.000 C 161.945 281.000,162.500 280.841,162.500 277.250 C 162.500 273.754,161.738 273.500,151.250 273.500 L 142.000 273.500 142.000 271.000 L 142.000 268.500 160.750 268.500 L 179.500 268.500 179.500 271.000 L 179.500 273.500 177.036 273.500 C 173.065 273.500,171.227 276.747,173.536 279.683 C 174.964 281.497,182.499 281.682,184.693 279.956 C 187.485 277.760,187.500 277.636,187.500 257.392 C 187.500 236.526,187.463 236.288,183.969 234.414 C 181.530 233.106,140.261 233.024,137.628 234.322 M149.500 251.000 L 149.500 260.500 145.750 260.500 L 142.000 260.500 142.000 251.000 L 142.000 241.500 145.750 241.500 L 149.500 241.500 149.500 251.000 M164.000 251.000 L 164.000 260.500 160.750 260.500 L 157.500 260.500 157.500 251.000 L 157.500 241.500 160.750 241.500 L 164.000 241.500 164.000 251.000 M179.500 251.000 L 179.500 260.500 175.750 260.500 L 172.000 260.500 172.000 251.000 L 172.000 241.500 175.750 241.500 L 179.500 241.500 179.500 251.000 M108.269 254.183 C 118.588 258.988,119.002 273.897,108.959 279.021 C 106.412 280.320,106.500 280.381,106.500 277.317 C 106.500 273.711,105.213 272.000,102.500 272.000 C 99.787 272.000,98.500 273.711,98.500 277.317 C 98.500 280.381,98.588 280.320,96.041 279.021 C 83.353 272.548,88.204 253.010,102.500 253.010 C 104.861 253.010,106.439 253.331,108.269 254.183 M304.269 254.183 C 314.588 258.988,315.002 273.897,304.959 279.021 C 302.412 280.320,302.500 280.381,302.500 277.317 C 302.500 273.711,301.213 272.000,298.500 272.000 C 295.787 272.000,294.500 273.711,294.500 277.317 C 294.500 280.381,294.588 280.320,292.041 279.021 C 279.353 272.548,284.204 253.010,298.500 253.010 C 300.861 253.010,302.439 253.331,304.269 254.183 M223.250 259.810 C 218.453 260.967,218.000 262.276,218.000 274.982 C 218.000 289.987,218.010 290.000,230.000 290.000 C 241.664 290.000,242.000 289.578,241.999 274.924 C 241.998 260.603,241.414 259.805,230.839 259.660 C 227.215 259.610,223.800 259.678,223.250 259.810 M253.750 259.810 C 248.953 260.967,248.500 262.276,248.500 274.982 C 248.500 289.987,248.510 290.000,260.500 290.000 C 272.164 290.000,272.500 289.578,272.499 274.924 C 272.498 260.603,271.914 259.805,261.339 259.660 C 257.715 259.610,254.300 259.678,253.750 259.810 M234.000 274.750 L 234.000 282.000 230.000 282.000 L 226.000 282.000 226.000 274.750 L 226.000 267.500 230.000 267.500 L 234.000 267.500 234.000 274.750 M264.500 274.750 L 264.500 282.000 260.500 282.000 L 256.500 282.000 256.500 274.750 L 256.500 267.500 260.500 267.500 L 264.500 267.500 264.500 274.750 M111.500 294.500 L 111.500 302.000 108.986 302.000 L 106.472 302.000 106.611 295.169 L 106.750 288.339 108.750 287.722 C 109.850 287.383,110.919 287.081,111.125 287.052 C 111.331 287.024,111.500 290.375,111.500 294.500 M294.125 288.338 C 294.331 288.460,294.500 291.583,294.500 295.280 L 294.500 302.000 292.500 302.000 L 290.500 302.000 290.500 294.710 L 290.500 287.421 292.125 287.769 C 293.019 287.961,293.919 288.217,294.125 288.338 " stroke="none" fill="#000000" fill-rule="evenodd"></path></g></svg>