<svg width="142" height="14" viewBox="0 0 142 14" fill="none" xmlns="http://www.w3.org/2000/svg">
<path d="M6.59668 6.91895H7.64258C7.64258 7.63444 7.4375 8.1722 7.02734 8.53223C6.61719 8.8877 6.0612 9.06543 5.35938 9.06543C4.87174 9.06543 4.4502 8.95378 4.09473 8.73047C3.73926 8.50716 3.46354 8.19727 3.26758 7.80078C3.07617 7.4043 2.98047 6.94401 2.98047 6.41992V5.62012C2.98047 5.09603 3.07617 4.63574 3.26758 4.23926C3.46354 3.84277 3.73926 3.53288 4.09473 3.30957C4.4502 3.08626 4.87174 2.97461 5.35938 2.97461C6.0612 2.97461 6.61719 3.15234 7.02734 3.50781C7.44206 3.86328 7.64941 4.39876 7.64941 5.11426H6.60352C6.60352 4.6722 6.4987 4.35547 6.28906 4.16406C6.07943 3.97266 5.76953 3.87695 5.35938 3.87695C5.06315 3.87695 4.81478 3.95215 4.61426 4.10254C4.41829 4.24837 4.2679 4.45117 4.16309 4.71094C4.06283 4.9707 4.0127 5.27148 4.0127 5.61328V6.41992C4.0127 6.76172 4.06283 7.06478 4.16309 7.3291C4.2679 7.58887 4.41829 7.79395 4.61426 7.94434C4.81478 8.09017 5.06315 8.16309 5.35938 8.16309C5.76953 8.16309 6.07715 8.06738 6.28223 7.87598C6.49186 7.68457 6.59668 7.36556 6.59668 6.91895ZM1.42188 6.0166C1.42188 6.61816 1.52441 7.17871 1.72949 7.69824C1.93913 8.21777 2.22852 8.6735 2.59766 9.06543C2.97135 9.4528 3.40202 9.75586 3.88965 9.97461C4.37728 10.1888 4.89909 10.2959 5.45508 10.2959C6.01107 10.2959 6.5306 10.1888 7.01367 9.97461C7.5013 9.75586 7.92969 9.4528 8.29883 9.06543C8.67253 8.6735 8.96191 8.21777 9.16699 7.69824C9.37663 7.17871 9.48145 6.61816 9.48145 6.0166C9.48145 5.41048 9.37663 4.84993 9.16699 4.33496C8.96191 3.81543 8.67253 3.36198 8.29883 2.97461C7.92969 2.58724 7.5013 2.28646 7.01367 2.07227C6.5306 1.85807 6.01107 1.75098 5.45508 1.75098C4.89909 1.75098 4.37728 1.85807 3.88965 2.07227C3.40202 2.28646 2.97135 2.58724 2.59766 2.97461C2.22852 3.36198 1.93913 3.81543 1.72949 4.33496C1.52441 4.84993 1.42188 5.41048 1.42188 6.0166ZM0.601562 6.0166C0.601562 5.29199 0.726888 4.61979 0.977539 4C1.22819 3.38021 1.57682 2.84017 2.02344 2.37988C2.47005 1.91504 2.98503 1.55501 3.56836 1.2998C4.15625 1.04004 4.78516 0.910156 5.45508 0.910156C6.125 0.910156 6.75163 1.04004 7.33496 1.2998C7.92285 1.55501 8.43783 1.91504 8.87988 2.37988C9.3265 2.84017 9.67513 3.38021 9.92578 4C10.181 4.61979 10.3086 5.29199 10.3086 6.0166C10.3086 6.74121 10.181 7.41341 9.92578 8.0332C9.67513 8.65299 9.3265 9.19531 8.87988 9.66016C8.43783 10.125 7.92285 10.4873 7.33496 10.7471C6.75163 11.0068 6.125 11.1367 5.45508 11.1367C4.78516 11.1367 4.15625 11.0068 3.56836 10.7471C2.98503 10.4873 2.47005 10.125 2.02344 9.66016C1.57682 9.19531 1.22819 8.65299 0.977539 8.0332C0.726888 7.41341 0.601562 6.74121 0.601562 6.0166ZM18.498 9.46191V11H11.6895V9.6875L14.9092 6.23535C15.2327 5.87533 15.488 5.55859 15.6748 5.28516C15.8617 5.00716 15.9961 4.75879 16.0781 4.54004C16.1647 4.31673 16.208 4.10482 16.208 3.9043C16.208 3.60352 16.1579 3.34603 16.0576 3.13184C15.9574 2.91309 15.8092 2.74447 15.6133 2.62598C15.4219 2.50749 15.1849 2.44824 14.9023 2.44824C14.6016 2.44824 14.3418 2.52116 14.123 2.66699C13.9089 2.81283 13.7448 3.01562 13.6309 3.27539C13.5215 3.53516 13.4668 3.8291 13.4668 4.15723H11.4912C11.4912 3.56478 11.6325 3.02246 11.915 2.53027C12.1976 2.03353 12.5964 1.63932 13.1113 1.34766C13.6263 1.05143 14.237 0.90332 14.9434 0.90332C15.6406 0.90332 16.2285 1.01725 16.707 1.24512C17.1901 1.46842 17.5547 1.79199 17.8008 2.21582C18.0514 2.63509 18.1768 3.13639 18.1768 3.71973C18.1768 4.04785 18.1243 4.36914 18.0195 4.68359C17.9147 4.99349 17.7643 5.30339 17.5684 5.61328C17.377 5.91862 17.1445 6.22852 16.8711 6.54297C16.5977 6.85742 16.2946 7.18327 15.9619 7.52051L14.2324 9.46191H18.498ZM26.4277 5.14844V6.87109C26.4277 7.61849 26.348 8.26335 26.1885 8.80566C26.029 9.34342 25.7988 9.78548 25.498 10.1318C25.2018 10.4736 24.8486 10.7266 24.4385 10.8906C24.0283 11.0547 23.5726 11.1367 23.0713 11.1367C22.6702 11.1367 22.2965 11.0866 21.9502 10.9863C21.6038 10.8815 21.2917 10.7197 21.0137 10.501C20.7402 10.2822 20.5033 10.0065 20.3027 9.67383C20.1068 9.33659 19.9564 8.93555 19.8516 8.4707C19.7467 8.00586 19.6943 7.47266 19.6943 6.87109V5.14844C19.6943 4.40104 19.7741 3.76074 19.9336 3.22754C20.0977 2.68978 20.3278 2.25 20.624 1.9082C20.9248 1.56641 21.2803 1.31576 21.6904 1.15625C22.1006 0.992188 22.5563 0.910156 23.0576 0.910156C23.4587 0.910156 23.8301 0.962565 24.1719 1.06738C24.5182 1.16764 24.8304 1.32487 25.1084 1.53906C25.3864 1.75326 25.6234 2.02897 25.8193 2.36621C26.0153 2.69889 26.1657 3.09766 26.2705 3.5625C26.3753 4.02279 26.4277 4.55143 26.4277 5.14844ZM24.4521 7.13086V4.88184C24.4521 4.52181 24.4316 4.20736 24.3906 3.93848C24.3542 3.6696 24.2972 3.44173 24.2197 3.25488C24.1423 3.06348 24.0465 2.90853 23.9326 2.79004C23.8187 2.67155 23.6888 2.58496 23.543 2.53027C23.3971 2.47559 23.2354 2.44824 23.0576 2.44824C22.8343 2.44824 22.6361 2.49154 22.4629 2.57812C22.2943 2.66471 22.1507 2.80371 22.0322 2.99512C21.9137 3.18197 21.8226 3.43262 21.7588 3.74707C21.6995 4.05697 21.6699 4.43522 21.6699 4.88184V7.13086C21.6699 7.49089 21.6882 7.80762 21.7246 8.08105C21.7656 8.35449 21.8249 8.58919 21.9023 8.78516C21.9844 8.97656 22.0801 9.13379 22.1895 9.25684C22.3034 9.37533 22.4333 9.46191 22.5791 9.5166C22.7295 9.57129 22.8936 9.59863 23.0713 9.59863C23.29 9.59863 23.4837 9.55534 23.6523 9.46875C23.8255 9.3776 23.9714 9.23633 24.0898 9.04492C24.2129 8.84896 24.304 8.59375 24.3633 8.2793C24.4225 7.96484 24.4521 7.58203 24.4521 7.13086ZM34.5762 9.46191V11H27.7676V9.6875L30.9873 6.23535C31.3109 5.87533 31.5661 5.55859 31.7529 5.28516C31.9398 5.00716 32.0742 4.75879 32.1562 4.54004C32.2428 4.31673 32.2861 4.10482 32.2861 3.9043C32.2861 3.60352 32.236 3.34603 32.1357 3.13184C32.0355 2.91309 31.8874 2.74447 31.6914 2.62598C31.5 2.50749 31.263 2.44824 30.9805 2.44824C30.6797 2.44824 30.4199 2.52116 30.2012 2.66699C29.987 2.81283 29.8229 3.01562 29.709 3.27539C29.5996 3.53516 29.5449 3.8291 29.5449 4.15723H27.5693C27.5693 3.56478 27.7106 3.02246 27.9932 2.53027C28.2757 2.03353 28.6745 1.63932 29.1895 1.34766C29.7044 1.05143 30.3151 0.90332 31.0215 0.90332C31.7188 0.90332 32.3066 1.01725 32.7852 1.24512C33.2682 1.46842 33.6328 1.79199 33.8789 2.21582C34.1296 2.63509 34.2549 3.13639 34.2549 3.71973C34.2549 4.04785 34.2025 4.36914 34.0977 4.68359C33.9928 4.99349 33.8424 5.30339 33.6465 5.61328C33.4551 5.91862 33.2227 6.22852 32.9492 6.54297C32.6758 6.85742 32.3727 7.18327 32.04 7.52051L30.3105 9.46191H34.5762ZM37.8232 5.16895H38.876C39.2132 5.16895 39.4912 5.11198 39.71 4.99805C39.9287 4.87956 40.0905 4.71549 40.1953 4.50586C40.3047 4.29167 40.3594 4.04329 40.3594 3.76074C40.3594 3.50553 40.3092 3.27995 40.209 3.08398C40.1133 2.88346 39.9652 2.72852 39.7646 2.61914C39.5641 2.50521 39.3112 2.44824 39.0059 2.44824C38.7643 2.44824 38.541 2.49609 38.3359 2.5918C38.1309 2.6875 37.9668 2.82194 37.8438 2.99512C37.7207 3.16829 37.6592 3.37793 37.6592 3.62402H35.6836C35.6836 3.07715 35.8294 2.60091 36.1211 2.19531C36.4173 1.78971 36.8138 1.47298 37.3105 1.24512C37.8073 1.01725 38.3542 0.90332 38.9512 0.90332C39.6257 0.90332 40.2158 1.0127 40.7217 1.23145C41.2275 1.44564 41.6217 1.76237 41.9043 2.18164C42.1868 2.60091 42.3281 3.12044 42.3281 3.74023C42.3281 4.05469 42.2552 4.36003 42.1094 4.65625C41.9635 4.94792 41.7539 5.21224 41.4805 5.44922C41.2116 5.68164 40.8835 5.86849 40.4961 6.00977C40.1087 6.14648 39.6735 6.21484 39.1904 6.21484H37.8232V5.16895ZM37.8232 6.66602V5.64746H39.1904C39.7327 5.64746 40.209 5.70898 40.6191 5.83203C41.0293 5.95508 41.3734 6.13281 41.6514 6.36523C41.9294 6.5931 42.139 6.86426 42.2803 7.17871C42.4215 7.48861 42.4922 7.83268 42.4922 8.21094C42.4922 8.67578 42.4033 9.09049 42.2256 9.45508C42.0479 9.8151 41.7972 10.1204 41.4736 10.3711C41.1546 10.6217 40.7809 10.8132 40.3525 10.9453C39.9242 11.0729 39.457 11.1367 38.9512 11.1367C38.5319 11.1367 38.1195 11.0798 37.7139 10.9658C37.3128 10.8473 36.9482 10.6719 36.6201 10.4395C36.2965 10.2025 36.0368 9.90625 35.8408 9.55078C35.6494 9.19076 35.5537 8.76465 35.5537 8.27246H37.5293C37.5293 8.52767 37.5931 8.75553 37.7207 8.95605C37.8483 9.15658 38.0238 9.3138 38.2471 9.42773C38.4749 9.54167 38.7279 9.59863 39.0059 9.59863C39.3203 9.59863 39.5892 9.54167 39.8125 9.42773C40.0404 9.30924 40.2135 9.14518 40.332 8.93555C40.4551 8.72135 40.5166 8.47298 40.5166 8.19043C40.5166 7.82585 40.4505 7.53418 40.3184 7.31543C40.1862 7.09212 39.9971 6.92806 39.751 6.82324C39.5049 6.71842 39.2132 6.66602 38.876 6.66602H37.8232ZM50.5928 11H48.4258L48.4395 9.40039H50.5928C51.1305 9.40039 51.584 9.27962 51.9531 9.03809C52.3223 8.79199 52.6003 8.43424 52.7871 7.96484C52.9785 7.49544 53.0742 6.92806 53.0742 6.2627V5.77734C53.0742 5.26693 53.0195 4.81803 52.9102 4.43066C52.8053 4.04329 52.6481 3.71745 52.4385 3.45312C52.2288 3.1888 51.9714 2.99056 51.666 2.8584C51.3607 2.72168 51.0098 2.65332 50.6133 2.65332H48.3848V1.04688H50.6133C51.2786 1.04688 51.887 1.16081 52.4385 1.38867C52.9945 1.61198 53.4753 1.93327 53.8809 2.35254C54.2865 2.77181 54.5986 3.27311 54.8174 3.85645C55.0407 4.43522 55.1523 5.08008 55.1523 5.79102V6.2627C55.1523 6.96908 55.0407 7.61393 54.8174 8.19727C54.5986 8.7806 54.2865 9.2819 53.8809 9.70117C53.4798 10.1159 52.999 10.4372 52.4385 10.665C51.8825 10.8883 51.2673 11 50.5928 11ZM49.5879 1.04688V11H47.5371V1.04688H49.5879ZM58.5977 3.60352V11H56.6221V3.60352H58.5977ZM56.499 1.67578C56.499 1.38867 56.5993 1.15169 56.7998 0.964844C57.0003 0.777995 57.2692 0.68457 57.6064 0.68457C57.9391 0.68457 58.2057 0.777995 58.4062 0.964844C58.6113 1.15169 58.7139 1.38867 58.7139 1.67578C58.7139 1.96289 58.6113 2.19987 58.4062 2.38672C58.2057 2.57357 57.9391 2.66699 57.6064 2.66699C57.2692 2.66699 57.0003 2.57357 56.7998 2.38672C56.5993 2.19987 56.499 1.96289 56.499 1.67578ZM64.9072 3.60352H66.6914V10.7539C66.6914 11.4284 66.541 12.0003 66.2402 12.4697C65.944 12.9437 65.5293 13.3014 64.9961 13.543C64.4629 13.7891 63.8431 13.9121 63.1367 13.9121C62.8268 13.9121 62.4987 13.8711 62.1523 13.7891C61.8105 13.707 61.4824 13.5794 61.168 13.4062C60.8581 13.2331 60.5983 13.0143 60.3887 12.75L61.2568 11.5879C61.4847 11.8522 61.749 12.0573 62.0498 12.2031C62.3506 12.3535 62.6833 12.4287 63.0479 12.4287C63.4033 12.4287 63.7041 12.3626 63.9502 12.2305C64.1963 12.1029 64.3854 11.9137 64.5176 11.6631C64.6497 11.417 64.7158 11.1185 64.7158 10.7676V5.3125L64.9072 3.60352ZM59.9307 7.39062V7.24707C59.9307 6.68197 59.999 6.16927 60.1357 5.70898C60.277 5.24414 60.4753 4.84538 60.7305 4.5127C60.9902 4.18001 61.3047 3.92253 61.6738 3.74023C62.043 3.55794 62.46 3.4668 62.9248 3.4668C63.417 3.4668 63.8294 3.55794 64.1621 3.74023C64.4948 3.92253 64.7682 4.18229 64.9824 4.51953C65.1966 4.85221 65.363 5.24642 65.4814 5.70215C65.6045 6.15332 65.7002 6.64779 65.7686 7.18555V7.5C65.7002 8.01497 65.5977 8.49349 65.4609 8.93555C65.3242 9.3776 65.1442 9.76497 64.9209 10.0977C64.6976 10.4258 64.4196 10.681 64.0869 10.8633C63.7588 11.0456 63.3669 11.1367 62.9111 11.1367C62.4554 11.1367 62.043 11.0433 61.6738 10.8564C61.3092 10.6696 60.9971 10.4076 60.7373 10.0703C60.4775 9.73307 60.277 9.33659 60.1357 8.88086C59.999 8.42513 59.9307 7.92839 59.9307 7.39062ZM61.8994 7.24707V7.39062C61.8994 7.69596 61.929 7.98079 61.9883 8.24512C62.0475 8.50944 62.1387 8.74414 62.2617 8.94922C62.3893 9.14974 62.5465 9.30697 62.7334 9.4209C62.9248 9.53027 63.1504 9.58496 63.4102 9.58496C63.7702 9.58496 64.0641 9.50977 64.292 9.35938C64.5199 9.20443 64.6908 8.99251 64.8047 8.72363C64.9186 8.45475 64.9847 8.14486 65.0029 7.79395V6.89844C64.9938 6.61133 64.9551 6.35384 64.8867 6.12598C64.8184 5.89355 64.7227 5.69531 64.5996 5.53125C64.4766 5.36719 64.3171 5.23958 64.1211 5.14844C63.9251 5.05729 63.6927 5.01172 63.4238 5.01172C63.1641 5.01172 62.9385 5.07096 62.7471 5.18945C62.5602 5.30339 62.403 5.46061 62.2754 5.66113C62.1523 5.86165 62.0589 6.09863 61.9951 6.37207C61.9313 6.64095 61.8994 6.93262 61.8994 7.24707ZM70.3008 3.60352V11H68.3252V3.60352H70.3008ZM68.2021 1.67578C68.2021 1.38867 68.3024 1.15169 68.5029 0.964844C68.7035 0.777995 68.9723 0.68457 69.3096 0.68457C69.6423 0.68457 69.9089 0.777995 70.1094 0.964844C70.3145 1.15169 70.417 1.38867 70.417 1.67578C70.417 1.96289 70.3145 2.19987 70.1094 2.38672C69.9089 2.57357 69.6423 2.66699 69.3096 2.66699C68.9723 2.66699 68.7035 2.57357 68.5029 2.38672C68.3024 2.19987 68.2021 1.96289 68.2021 1.67578ZM75.5508 3.60352V4.99805H71.2441V3.60352H75.5508ZM72.3105 1.77832H74.2793V8.77148C74.2793 8.98568 74.3066 9.14974 74.3613 9.26367C74.4206 9.3776 74.5072 9.45736 74.6211 9.50293C74.735 9.54395 74.8786 9.56445 75.0518 9.56445C75.1748 9.56445 75.2842 9.5599 75.3799 9.55078C75.4801 9.53711 75.5645 9.52344 75.6328 9.50977L75.6396 10.959C75.471 11.0137 75.2887 11.057 75.0928 11.0889C74.8968 11.1208 74.6803 11.1367 74.4434 11.1367C74.0104 11.1367 73.6322 11.0661 73.3086 10.9248C72.9896 10.779 72.7435 10.5465 72.5703 10.2275C72.3971 9.90853 72.3105 9.48926 72.3105 8.96973V1.77832ZM80.6641 9.33203V6.03711C80.6641 5.80013 80.6253 5.59733 80.5479 5.42871C80.4704 5.25553 80.3496 5.12109 80.1855 5.02539C80.026 4.92969 79.8187 4.88184 79.5635 4.88184C79.3447 4.88184 79.1556 4.92057 78.9961 4.99805C78.8366 5.07096 78.7135 5.17806 78.627 5.31934C78.5404 5.45605 78.4971 5.61784 78.4971 5.80469H76.5283C76.5283 5.49023 76.6012 5.19173 76.7471 4.90918C76.8929 4.62663 77.1048 4.37826 77.3828 4.16406C77.6608 3.94531 77.9912 3.77441 78.374 3.65137C78.7614 3.52832 79.1943 3.4668 79.6729 3.4668C80.2471 3.4668 80.7575 3.5625 81.2041 3.75391C81.6507 3.94531 82.0016 4.23242 82.2568 4.61523C82.5166 4.99805 82.6465 5.47656 82.6465 6.05078V9.21582C82.6465 9.62142 82.6715 9.9541 82.7217 10.2139C82.7718 10.4691 82.8447 10.6924 82.9404 10.8838V11H80.9512C80.8555 10.7995 80.7826 10.5488 80.7324 10.248C80.6868 9.94271 80.6641 9.63737 80.6641 9.33203ZM80.9238 6.49512L80.9375 7.60938H79.8369C79.5771 7.60938 79.3516 7.639 79.1602 7.69824C78.9688 7.75749 78.8115 7.8418 78.6885 7.95117C78.5654 8.05599 78.4743 8.17904 78.415 8.32031C78.3604 8.46159 78.333 8.61654 78.333 8.78516C78.333 8.95378 78.3717 9.10645 78.4492 9.24316C78.5267 9.37533 78.6383 9.48014 78.7842 9.55762C78.93 9.63053 79.1009 9.66699 79.2969 9.66699C79.5931 9.66699 79.8506 9.60775 80.0693 9.48926C80.2881 9.37077 80.4567 9.22493 80.5752 9.05176C80.6982 8.87858 80.762 8.71452 80.7666 8.55957L81.2861 9.39355C81.2132 9.5804 81.113 9.77409 80.9854 9.97461C80.8623 10.1751 80.7051 10.3643 80.5137 10.542C80.3223 10.7152 80.0921 10.8587 79.8232 10.9727C79.5544 11.082 79.2354 11.1367 78.8662 11.1367C78.3968 11.1367 77.9707 11.0433 77.5879 10.8564C77.2096 10.665 76.9089 10.403 76.6855 10.0703C76.4668 9.73307 76.3574 9.35026 76.3574 8.92188C76.3574 8.53451 76.4303 8.19043 76.5762 7.88965C76.722 7.58887 76.9362 7.33594 77.2188 7.13086C77.5059 6.92122 77.8636 6.764 78.292 6.65918C78.7204 6.5498 79.2171 6.49512 79.7822 6.49512H80.9238ZM86.2422 0.5V11H84.2666V0.5H86.2422ZM95.375 6.63184H92.8184L92.8047 5.22363H94.9512C95.3294 5.22363 95.6393 5.17578 95.8809 5.08008C96.1224 4.97982 96.3024 4.83626 96.4209 4.64941C96.5439 4.45801 96.6055 4.22559 96.6055 3.95215C96.6055 3.64225 96.5462 3.3916 96.4277 3.2002C96.3138 3.00879 96.1338 2.86979 95.8877 2.7832C95.6462 2.69661 95.334 2.65332 94.9512 2.65332H93.5293V11H91.4785V1.04688H94.9512C95.5299 1.04688 96.0472 1.10156 96.5029 1.21094C96.9632 1.32031 97.3529 1.48665 97.6719 1.70996C97.9909 1.93327 98.2347 2.21582 98.4033 2.55762C98.5719 2.89486 98.6562 3.2959 98.6562 3.76074C98.6562 4.1709 98.5628 4.54915 98.376 4.89551C98.1937 5.24186 97.9043 5.52441 97.5078 5.74316C97.1159 5.96191 96.6032 6.08268 95.9697 6.10547L95.375 6.63184ZM95.2861 11H92.2578L93.0576 9.40039H95.2861C95.6462 9.40039 95.9401 9.34342 96.168 9.22949C96.3958 9.111 96.5645 8.9515 96.6738 8.75098C96.7832 8.55046 96.8379 8.32031 96.8379 8.06055C96.8379 7.76888 96.7878 7.51595 96.6875 7.30176C96.5918 7.08757 96.4368 6.9235 96.2227 6.80957C96.0085 6.69108 95.7259 6.63184 95.375 6.63184H93.3994L93.4131 5.22363H95.874L96.3457 5.77734C96.9518 5.76823 97.4395 5.87533 97.8086 6.09863C98.1823 6.31738 98.4535 6.60221 98.6221 6.95312C98.7952 7.30404 98.8818 7.68001 98.8818 8.08105C98.8818 8.71908 98.7428 9.25684 98.4648 9.69434C98.1868 10.1273 97.779 10.4531 97.2412 10.6719C96.708 10.8906 96.0563 11 95.2861 11ZM99.9824 7.37695V7.2334C99.9824 6.69108 100.06 6.19206 100.215 5.73633C100.37 5.27604 100.595 4.87728 100.892 4.54004C101.188 4.2028 101.552 3.94076 101.985 3.75391C102.418 3.5625 102.915 3.4668 103.476 3.4668C104.036 3.4668 104.535 3.5625 104.973 3.75391C105.41 3.94076 105.777 4.2028 106.073 4.54004C106.374 4.87728 106.602 5.27604 106.757 5.73633C106.912 6.19206 106.989 6.69108 106.989 7.2334V7.37695C106.989 7.91471 106.912 8.41374 106.757 8.87402C106.602 9.32975 106.374 9.72852 106.073 10.0703C105.777 10.4076 105.412 10.6696 104.979 10.8564C104.547 11.0433 104.05 11.1367 103.489 11.1367C102.929 11.1367 102.43 11.0433 101.992 10.8564C101.559 10.6696 101.192 10.4076 100.892 10.0703C100.595 9.72852 100.37 9.32975 100.215 8.87402C100.06 8.41374 99.9824 7.91471 99.9824 7.37695ZM101.951 7.2334V7.37695C101.951 7.68685 101.979 7.97624 102.033 8.24512C102.088 8.514 102.174 8.75098 102.293 8.95605C102.416 9.15658 102.576 9.3138 102.771 9.42773C102.967 9.54167 103.207 9.59863 103.489 9.59863C103.763 9.59863 103.997 9.54167 104.193 9.42773C104.389 9.3138 104.547 9.15658 104.665 8.95605C104.784 8.75098 104.87 8.514 104.925 8.24512C104.984 7.97624 105.014 7.68685 105.014 7.37695V7.2334C105.014 6.93262 104.984 6.65007 104.925 6.38574C104.87 6.11686 104.781 5.87988 104.658 5.6748C104.54 5.46517 104.382 5.30111 104.187 5.18262C103.991 5.06413 103.754 5.00488 103.476 5.00488C103.198 5.00488 102.961 5.06413 102.765 5.18262C102.573 5.30111 102.416 5.46517 102.293 5.6748C102.174 5.87988 102.088 6.11686 102.033 6.38574C101.979 6.65007 101.951 6.93262 101.951 7.2334ZM107.885 7.37695V7.2334C107.885 6.69108 107.962 6.19206 108.117 5.73633C108.272 5.27604 108.498 4.87728 108.794 4.54004C109.09 4.2028 109.455 3.94076 109.888 3.75391C110.321 3.5625 110.817 3.4668 111.378 3.4668C111.938 3.4668 112.438 3.5625 112.875 3.75391C113.312 3.94076 113.679 4.2028 113.976 4.54004C114.276 4.87728 114.504 5.27604 114.659 5.73633C114.814 6.19206 114.892 6.69108 114.892 7.2334V7.37695C114.892 7.91471 114.814 8.41374 114.659 8.87402C114.504 9.32975 114.276 9.72852 113.976 10.0703C113.679 10.4076 113.315 10.6696 112.882 10.8564C112.449 11.0433 111.952 11.1367 111.392 11.1367C110.831 11.1367 110.332 11.0433 109.895 10.8564C109.462 10.6696 109.095 10.4076 108.794 10.0703C108.498 9.72852 108.272 9.32975 108.117 8.87402C107.962 8.41374 107.885 7.91471 107.885 7.37695ZM109.854 7.2334V7.37695C109.854 7.68685 109.881 7.97624 109.936 8.24512C109.99 8.514 110.077 8.75098 110.195 8.95605C110.318 9.15658 110.478 9.3138 110.674 9.42773C110.87 9.54167 111.109 9.59863 111.392 9.59863C111.665 9.59863 111.9 9.54167 112.096 9.42773C112.292 9.3138 112.449 9.15658 112.567 8.95605C112.686 8.75098 112.772 8.514 112.827 8.24512C112.886 7.97624 112.916 7.68685 112.916 7.37695V7.2334C112.916 6.93262 112.886 6.65007 112.827 6.38574C112.772 6.11686 112.684 5.87988 112.561 5.6748C112.442 5.46517 112.285 5.30111 112.089 5.18262C111.893 5.06413 111.656 5.00488 111.378 5.00488C111.1 5.00488 110.863 5.06413 110.667 5.18262C110.476 5.30111 110.318 5.46517 110.195 5.6748C110.077 5.87988 109.99 6.11686 109.936 6.38574C109.881 6.65007 109.854 6.93262 109.854 7.2334ZM118.07 0.493164V11H116.102V0.493164H118.07ZM122.732 3.60352L119.52 7.26758L117.797 9.01074L117.079 7.58887L118.446 5.85254L120.367 3.60352H122.732ZM120.688 11L118.501 7.58203L119.861 6.39258L122.958 11H120.688ZM125.658 3.60352V11H123.683V3.60352H125.658ZM123.56 1.67578C123.56 1.38867 123.66 1.15169 123.86 0.964844C124.061 0.777995 124.33 0.68457 124.667 0.68457C125 0.68457 125.266 0.777995 125.467 0.964844C125.672 1.15169 125.774 1.38867 125.774 1.67578C125.774 1.96289 125.672 2.19987 125.467 2.38672C125.266 2.57357 125 2.66699 124.667 2.66699C124.33 2.66699 124.061 2.57357 123.86 2.38672C123.66 2.19987 123.56 1.96289 123.56 1.67578ZM129.213 5.18262V11H127.244V3.60352H129.09L129.213 5.18262ZM128.926 7.04199H128.393C128.393 6.49512 128.463 6.00293 128.604 5.56543C128.746 5.12337 128.944 4.7474 129.199 4.4375C129.454 4.12305 129.757 3.88379 130.108 3.71973C130.464 3.55111 130.86 3.4668 131.298 3.4668C131.644 3.4668 131.961 3.51693 132.248 3.61719C132.535 3.71745 132.781 3.87695 132.986 4.0957C133.196 4.31445 133.355 4.60384 133.465 4.96387C133.579 5.32389 133.636 5.76367 133.636 6.2832V11H131.653V6.27637C131.653 5.94824 131.608 5.69303 131.517 5.51074C131.425 5.32845 131.291 5.20085 131.113 5.12793C130.94 5.05046 130.726 5.01172 130.471 5.01172C130.206 5.01172 129.976 5.06413 129.78 5.16895C129.589 5.27376 129.429 5.4196 129.302 5.60645C129.179 5.78874 129.085 6.00293 129.021 6.24902C128.958 6.49512 128.926 6.75944 128.926 7.04199ZM139.815 3.60352H141.6V10.7539C141.6 11.4284 141.449 12.0003 141.148 12.4697C140.852 12.9437 140.438 13.3014 139.904 13.543C139.371 13.7891 138.751 13.9121 138.045 13.9121C137.735 13.9121 137.407 13.8711 137.061 13.7891C136.719 13.707 136.391 13.5794 136.076 13.4062C135.766 13.2331 135.507 13.0143 135.297 12.75L136.165 11.5879C136.393 11.8522 136.657 12.0573 136.958 12.2031C137.259 12.3535 137.591 12.4287 137.956 12.4287C138.312 12.4287 138.612 12.3626 138.858 12.2305C139.104 12.1029 139.294 11.9137 139.426 11.6631C139.558 11.417 139.624 11.1185 139.624 10.7676V5.3125L139.815 3.60352ZM134.839 7.39062V7.24707C134.839 6.68197 134.907 6.16927 135.044 5.70898C135.185 5.24414 135.383 4.84538 135.639 4.5127C135.898 4.18001 136.213 3.92253 136.582 3.74023C136.951 3.55794 137.368 3.4668 137.833 3.4668C138.325 3.4668 138.738 3.55794 139.07 3.74023C139.403 3.92253 139.676 4.18229 139.891 4.51953C140.105 4.85221 140.271 5.24642 140.39 5.70215C140.513 6.15332 140.608 6.64779 140.677 7.18555V7.5C140.608 8.01497 140.506 8.49349 140.369 8.93555C140.232 9.3776 140.052 9.76497 139.829 10.0977C139.606 10.4258 139.328 10.681 138.995 10.8633C138.667 11.0456 138.275 11.1367 137.819 11.1367C137.364 11.1367 136.951 11.0433 136.582 10.8564C136.217 10.6696 135.905 10.4076 135.646 10.0703C135.386 9.73307 135.185 9.33659 135.044 8.88086C134.907 8.42513 134.839 7.92839 134.839 7.39062ZM136.808 7.24707V7.39062C136.808 7.69596 136.837 7.98079 136.896 8.24512C136.956 8.50944 137.047 8.74414 137.17 8.94922C137.298 9.14974 137.455 9.30697 137.642 9.4209C137.833 9.53027 138.059 9.58496 138.318 9.58496C138.678 9.58496 138.972 9.50977 139.2 9.35938C139.428 9.20443 139.599 8.99251 139.713 8.72363C139.827 8.45475 139.893 8.14486 139.911 7.79395V6.89844C139.902 6.61133 139.863 6.35384 139.795 6.12598C139.727 5.89355 139.631 5.69531 139.508 5.53125C139.385 5.36719 139.225 5.23958 139.029 5.14844C138.833 5.05729 138.601 5.01172 138.332 5.01172C138.072 5.01172 137.847 5.07096 137.655 5.18945C137.468 5.30339 137.311 5.46061 137.184 5.66113C137.061 5.86165 136.967 6.09863 136.903 6.37207C136.84 6.64095 136.808 6.93262 136.808 7.24707Z" fill="white"/>
</svg>
