<svg id="svg" xmlns="http://www.w3.org/2000/svg" xmlns:xlink="http://www.w3.org/1999/xlink" width="400" height="266.09808102345414" viewBox="0, 0, 400,266.09808102345414" version="1.1"><g id="svgg"><path id="path0" d="M183.963 48.257 C 182.188 49.243,181.821 52.494,183.248 54.599 C 183.679 55.235,184.032 55.875,184.032 56.021 C 184.032 56.194,180.572 56.287,174.185 56.287 C 164.597 56.287,164.310 56.303,163.273 56.863 C 160.600 58.308,159.681 60.123,159.681 63.957 C 159.681 76.441,160.812 77.490,174.218 77.433 C 178.542 77.415,182.138 77.459,182.211 77.531 C 182.283 77.603,182.363 80.458,182.388 83.874 C 182.434 89.910,182.453 90.111,183.053 90.953 C 183.613 91.738,183.628 91.835,183.216 91.993 C 182.641 92.214,166.526 91.898,160.878 91.555 C 158.536 91.413,153.566 91.264,149.834 91.224 L 143.047 91.151 141.807 91.949 C 140.572 92.745,134.494 97.413,130.082 100.956 C 125.411 104.706,126.078 106.361,134.067 110.845 C 134.328 110.991,135.377 111.661,136.399 112.334 C 141.809 115.894,144.432 117.562,144.910 117.745 C 145.203 117.858,153.916 117.932,164.271 117.909 L 183.100 117.868 183.100 118.707 C 183.100 120.900,181.442 121.885,177.724 121.901 C 176.217 121.907,173.367 122.022,171.391 122.157 C 169.415 122.291,166.061 122.481,163.939 122.578 C 155.579 122.962,154.727 124.234,154.988 135.941 C 155.174 144.309,155.281 144.860,157.065 146.545 C 159.193 148.555,158.795 148.503,172.178 148.503 C 178.771 148.503,184.165 148.555,184.165 148.618 C 184.165 148.682,183.776 149.360,183.300 150.125 L 182.435 151.515 182.269 164.713 C 181.741 206.725,181.481 220.992,181.202 223.315 C 180.922 225.653,180.938 225.942,181.389 226.705 C 182.316 228.275,183.030 228.223,162.394 228.077 C 129.187 227.842,93.408 227.932,81.836 228.280 C 60.518 228.920,45.394 230.052,33.001 231.936 C 25.569 233.066,22.869 233.870,23.242 234.843 C 23.440 235.359,23.994 235.369,25.993 234.894 C 34.522 232.865,50.153 231.161,66.534 230.473 C 69.827 230.335,75.096 230.070,78.244 229.884 C 82.507 229.632,96.885 229.545,134.664 229.543 C 191.125 229.541,193.195 229.482,193.429 227.880 C 193.559 226.991,192.894 226.827,187.686 226.468 C 182.059 226.080,182.338 226.271,182.812 223.133 C 182.973 222.071,183.208 211.029,183.368 197.073 C 183.521 183.752,183.737 168.037,183.849 162.149 L 184.052 151.444 184.841 150.614 C 185.274 150.157,186.048 149.585,186.560 149.342 C 187.703 148.800,187.913 147.936,187.048 147.331 C 186.513 146.956,184.933 146.906,173.660 146.905 C 155.741 146.903,156.981 147.693,156.487 135.964 C 155.984 124.015,155.529 124.369,172.189 123.750 C 182.117 123.382,183.719 122.928,184.291 120.325 C 184.500 119.373,185.530 118.836,187.625 118.585 C 190.738 118.213,192.385 117.290,191.160 116.604 C 190.872 116.443,182.572 116.404,168.732 116.498 C 143.911 116.667,146.113 116.850,142.270 114.299 C 140.842 113.351,139.628 112.575,139.572 112.575 C 139.516 112.575,138.598 111.992,137.533 111.279 C 136.467 110.566,134.697 109.413,133.599 108.717 C 127.512 104.857,127.504 104.832,131.471 101.809 C 132.422 101.084,133.260 100.415,133.333 100.322 C 133.407 100.229,134.018 99.744,134.693 99.245 C 135.368 98.745,137.427 97.166,139.269 95.735 C 143.577 92.389,143.877 92.285,148.190 92.622 C 151.448 92.878,156.388 93.042,181.310 93.727 C 193.952 94.074,194.327 94.043,193.377 92.744 C 193.055 92.304,192.541 92.210,189.715 92.074 C 184.160 91.805,184.060 91.674,183.946 84.496 L 183.860 79.080 184.482 78.672 C 184.824 78.448,185.881 78.069,186.830 77.830 C 188.725 77.354,189.379 76.910,189.133 76.268 C 188.990 75.895,187.683 75.848,177.320 75.842 C 161.251 75.834,161.659 76.082,161.364 66.134 L 161.215 61.078 162.039 59.956 C 163.622 57.803,163.137 57.872,175.915 57.977 L 187.226 58.070 187.854 57.396 L 188.483 56.722 187.800 56.039 C 187.424 55.663,186.881 55.356,186.593 55.356 C 184.672 55.356,182.936 50.711,184.488 49.726 C 184.958 49.428,195.916 49.451,196.390 49.751 C 196.650 49.915,196.821 50.704,196.922 52.209 C 197.093 54.726,197.594 55.691,199.273 56.734 L 200.266 57.352 215.569 57.352 L 230.872 57.352 232.335 58.229 C 233.140 58.712,234.518 59.575,235.396 60.147 C 236.274 60.719,237.255 61.342,237.576 61.532 C 243.691 65.145,244.533 65.932,244.198 67.721 C 244.006 68.743,243.346 69.383,241.384 70.451 C 240.579 70.889,238.483 72.058,236.727 73.049 C 234.970 74.040,232.770 75.274,231.837 75.791 L 230.142 76.731 220.793 76.537 C 215.651 76.431,208.809 76.251,205.589 76.137 C 196.724 75.824,197.206 75.329,197.206 84.768 C 197.206 94.632,196.344 93.972,210.246 94.741 C 218.563 95.200,218.230 94.722,218.230 106.212 C 218.230 117.832,219.168 116.895,207.053 117.388 L 198.669 117.729 197.804 118.585 C 196.671 119.707,196.683 120.553,197.850 121.827 L 198.761 122.821 217.744 122.987 C 231.825 123.110,236.952 123.238,237.601 123.482 C 238.082 123.663,240.167 124.756,242.235 125.911 C 244.303 127.066,246.030 128.011,246.073 128.011 C 246.116 128.011,246.762 128.371,247.508 128.811 C 248.255 129.251,249.668 130.050,250.647 130.586 C 251.627 131.122,252.908 131.830,253.493 132.159 C 254.079 132.489,255.156 133.075,255.888 133.462 C 259.547 135.395,259.071 138.640,254.918 140.083 C 254.134 140.355,253.014 140.783,252.428 141.033 C 251.843 141.284,250.825 141.701,250.166 141.960 C 249.508 142.219,248.609 142.590,248.170 142.785 C 247.731 142.979,245.336 143.937,242.848 144.913 C 240.359 145.888,237.307 147.112,236.064 147.631 L 233.806 148.575 215.219 148.472 C 197.065 148.372,196.623 148.382,196.253 148.887 C 195.728 149.603,195.743 149.649,196.939 151.031 L 198.004 152.261 198.000 155.771 C 197.997 157.702,198.118 164.731,198.269 171.391 C 198.420 178.051,198.668 190.206,198.821 198.403 C 199.396 229.319,198.488 227.806,216.479 227.817 C 221.906 227.821,229.222 227.940,232.735 228.083 C 236.248 228.225,242.415 228.459,246.440 228.603 C 250.466 228.747,255.496 228.990,257.618 229.143 C 259.741 229.296,263.752 229.545,266.534 229.696 C 272.493 230.021,281.636 230.583,287.425 230.980 C 289.694 231.136,294.604 231.445,298.337 231.667 C 302.069 231.889,308.417 232.275,312.442 232.524 C 323.268 233.194,351.228 233.195,357.418 232.526 C 362.800 231.945,367.103 231.347,369.395 230.862 C 370.346 230.660,371.566 230.419,372.105 230.325 C 373.257 230.124,374.169 229.286,373.723 228.839 C 373.425 228.541,372.323 228.620,370.193 229.091 C 365.207 230.195,358.664 230.947,351.297 231.263 C 347.858 231.410,343.477 231.603,341.563 231.692 C 338.380 231.839,330.783 231.641,314.837 230.997 C 308.592 230.744,303.959 230.484,293.679 229.809 C 275.229 228.598,268.043 228.161,258.816 227.688 C 254.571 227.471,250.499 227.228,249.767 227.149 C 247.173 226.870,228.605 226.452,219.162 226.460 C 199.761 226.478,200.869 227.947,200.410 201.597 C 199.509 149.854,199.573 152.169,199.014 151.236 C 198.731 150.763,198.563 150.272,198.641 150.145 C 198.721 150.017,206.580 149.972,216.364 150.045 C 231.809 150.159,234.065 150.125,234.937 149.764 C 235.482 149.538,236.587 149.095,237.392 148.781 C 238.197 148.466,239.095 148.098,239.388 147.964 C 239.681 147.829,240.579 147.473,241.384 147.172 C 242.189 146.872,243.087 146.515,243.380 146.381 C 243.673 146.246,244.511 145.903,245.243 145.618 C 248.046 144.526,251.383 143.150,251.826 142.904 C 252.080 142.763,252.440 142.647,252.624 142.646 C 252.809 142.645,253.260 142.492,253.626 142.306 C 253.992 142.120,255.051 141.671,255.980 141.310 C 259.794 139.825,261.011 136.429,258.713 133.684 C 258.313 133.206,253.909 130.406,253.557 130.406 C 253.500 130.406,252.145 129.671,250.546 128.774 C 248.946 127.876,247.099 126.847,246.440 126.487 C 245.782 126.128,244.764 125.565,244.178 125.237 C 243.593 124.909,242.395 124.250,241.517 123.771 C 240.639 123.293,239.501 122.644,238.989 122.329 C 237.963 121.699,229.973 121.447,208.999 121.384 C 203.977 121.369,199.873 121.245,199.485 121.098 C 198.578 120.753,198.520 119.564,199.401 119.378 C 200.213 119.206,210.625 118.695,213.440 118.689 C 219.285 118.676,219.625 117.931,219.510 105.389 L 219.428 96.474 218.697 95.518 C 217.301 93.694,215.928 93.411,205.849 92.867 C 202.554 92.690,200.238 92.443,199.683 92.211 L 198.794 91.840 198.864 84.842 L 198.935 77.844 203.726 77.771 C 206.361 77.730,213.291 77.873,219.127 78.088 C 230.335 78.501,230.874 78.470,232.335 77.312 C 232.555 77.138,233.812 76.410,235.130 75.694 C 236.447 74.978,237.764 74.245,238.057 74.066 C 238.350 73.887,238.769 73.656,238.989 73.553 C 243.763 71.321,245.775 69.433,245.775 67.186 C 245.775 64.746,245.208 64.274,234.198 57.563 L 231.670 56.021 216.054 55.888 C 200.847 55.759,200.418 55.741,199.709 55.211 C 198.830 54.554,198.188 52.877,198.368 51.707 C 198.581 50.319,198.094 49.068,197.100 48.453 C 196.014 47.782,185.112 47.619,183.963 48.257 " stroke="none" fill="#292929" fill-rule="evenodd"></path><path id="path1" d="M0.000 133.067 L 0.000 266.134 200.000 266.134 L 400.000 266.134 400.000 133.067 L 400.000 0.000 200.000 0.000 L 0.000 0.000 0.000 133.067 M197.100 48.453 C 198.094 49.068,198.581 50.319,198.368 51.707 C 198.188 52.877,198.830 54.554,199.709 55.211 C 200.418 55.741,200.847 55.759,216.054 55.888 L 231.670 56.021 234.198 57.563 C 245.208 64.274,245.775 64.746,245.775 67.186 C 245.775 69.433,243.763 71.321,238.989 73.553 C 238.769 73.656,238.350 73.887,238.057 74.066 C 237.764 74.245,236.447 74.978,235.130 75.694 C 233.812 76.410,232.555 77.138,232.335 77.312 C 230.874 78.470,230.335 78.501,219.127 78.088 C 213.291 77.873,206.361 77.730,203.726 77.771 L 198.935 77.844 198.864 84.842 L 198.794 91.840 199.683 92.211 C 200.238 92.443,202.554 92.690,205.849 92.867 C 215.928 93.411,217.301 93.694,218.697 95.518 L 219.428 96.474 219.510 105.389 C 219.625 117.931,219.285 118.676,213.440 118.689 C 210.625 118.695,200.213 119.206,199.401 119.378 C 198.520 119.564,198.578 120.753,199.485 121.098 C 199.873 121.245,203.977 121.369,208.999 121.384 C 229.973 121.447,237.963 121.699,238.989 122.329 C 239.501 122.644,240.639 123.293,241.517 123.771 C 242.395 124.250,243.593 124.909,244.178 125.237 C 244.764 125.565,245.782 126.128,246.440 126.487 C 247.099 126.847,248.946 127.876,250.546 128.774 C 252.145 129.671,253.500 130.406,253.557 130.406 C 253.909 130.406,258.313 133.206,258.713 133.684 C 261.011 136.429,259.794 139.825,255.980 141.310 C 255.051 141.671,253.992 142.120,253.626 142.306 C 253.260 142.492,252.809 142.645,252.624 142.646 C 252.440 142.647,252.080 142.763,251.826 142.904 C 251.383 143.150,248.046 144.526,245.243 145.618 C 244.511 145.903,243.673 146.246,243.380 146.381 C 243.087 146.515,242.189 146.872,241.384 147.172 C 240.579 147.473,239.681 147.829,239.388 147.964 C 239.095 148.098,238.197 148.466,237.392 148.781 C 236.587 149.095,235.482 149.538,234.937 149.764 C 234.065 150.125,231.809 150.159,216.364 150.045 C 206.580 149.972,198.721 150.017,198.641 150.145 C 198.563 150.272,198.731 150.763,199.014 151.236 C 199.573 152.169,199.509 149.854,200.410 201.597 C 200.869 227.947,199.761 226.478,219.162 226.460 C 228.605 226.452,247.173 226.870,249.767 227.149 C 250.499 227.228,254.571 227.471,258.816 227.688 C 268.043 228.161,275.229 228.598,293.679 229.809 C 303.959 230.484,308.592 230.744,314.837 230.997 C 330.783 231.641,338.380 231.839,341.563 231.692 C 343.477 231.603,347.858 231.410,351.297 231.263 C 358.664 230.947,365.207 230.195,370.193 229.091 C 372.323 228.620,373.425 228.541,373.723 228.839 C 374.169 229.286,373.257 230.124,372.105 230.325 C 371.566 230.419,370.346 230.660,369.395 230.862 C 367.103 231.347,362.800 231.945,357.418 232.526 C 351.228 233.195,323.268 233.194,312.442 232.524 C 308.417 232.275,302.069 231.889,298.337 231.667 C 294.604 231.445,289.694 231.136,287.425 230.980 C 281.636 230.583,272.493 230.021,266.534 229.696 C 263.752 229.545,259.741 229.296,257.618 229.143 C 255.496 228.990,250.466 228.747,246.440 228.603 C 242.415 228.459,236.248 228.225,232.735 228.083 C 229.222 227.940,221.906 227.821,216.479 227.817 C 198.488 227.806,199.396 229.319,198.821 198.403 C 198.668 190.206,198.420 178.051,198.269 171.391 C 198.118 164.731,197.997 157.702,198.000 155.771 L 198.004 152.261 196.939 151.031 C 195.743 149.649,195.728 149.603,196.253 148.887 C 196.623 148.382,197.065 148.372,215.219 148.472 L 233.806 148.575 236.064 147.631 C 237.307 147.112,240.359 145.888,242.848 144.913 C 245.336 143.937,247.731 142.979,248.170 142.785 C 248.609 142.590,249.508 142.219,250.166 141.960 C 250.825 141.701,251.843 141.284,252.428 141.033 C 253.014 140.783,254.134 140.355,254.918 140.083 C 259.071 138.640,259.547 135.395,255.888 133.462 C 255.156 133.075,254.079 132.489,253.493 132.159 C 252.908 131.830,251.627 131.122,250.647 130.586 C 249.668 130.050,248.255 129.251,247.508 128.811 C 246.762 128.371,246.116 128.011,246.073 128.011 C 246.030 128.011,244.303 127.066,242.235 125.911 C 240.167 124.756,238.082 123.663,237.601 123.482 C 236.952 123.238,231.825 123.110,217.744 122.987 L 198.761 122.821 197.850 121.827 C 196.683 120.553,196.671 119.707,197.804 118.585 L 198.669 117.729 207.053 117.388 C 219.168 116.895,218.230 117.832,218.230 106.212 C 218.230 94.722,218.563 95.200,210.246 94.741 C 196.344 93.972,197.206 94.632,197.206 84.768 C 197.206 75.329,196.724 75.824,205.589 76.137 C 208.809 76.251,215.651 76.431,220.793 76.537 L 230.142 76.731 231.837 75.791 C 232.770 75.274,234.970 74.040,236.727 73.049 C 238.483 72.058,240.579 70.889,241.384 70.451 C 243.346 69.383,244.006 68.743,244.198 67.721 C 244.533 65.932,243.691 65.145,237.576 61.532 C 237.255 61.342,236.274 60.719,235.396 60.147 C 234.518 59.575,233.140 58.712,232.335 58.229 L 230.872 57.352 215.569 57.352 L 200.266 57.352 199.273 56.734 C 197.594 55.691,197.093 54.726,196.922 52.209 C 196.821 50.704,196.650 49.915,196.390 49.751 C 195.916 49.451,184.958 49.428,184.488 49.726 C 182.936 50.711,184.672 55.356,186.593 55.356 C 186.881 55.356,187.424 55.663,187.800 56.039 L 188.483 56.722 187.854 57.396 L 187.226 58.070 175.915 57.977 C 163.137 57.872,163.622 57.803,162.039 59.956 L 161.215 61.078 161.364 66.134 C 161.659 76.082,161.251 75.834,177.320 75.842 C 187.683 75.848,188.990 75.895,189.133 76.268 C 189.379 76.910,188.725 77.354,186.830 77.830 C 185.881 78.069,184.824 78.448,184.482 78.672 L 183.860 79.080 183.946 84.496 C 184.060 91.674,184.160 91.805,189.715 92.074 C 192.541 92.210,193.055 92.304,193.377 92.744 C 194.327 94.043,193.952 94.074,181.310 93.727 C 156.388 93.042,151.448 92.878,148.190 92.622 C 143.877 92.285,143.577 92.389,139.269 95.735 C 137.427 97.166,135.368 98.745,134.693 99.245 C 134.018 99.744,133.407 100.229,133.333 100.322 C 133.260 100.415,132.422 101.084,131.471 101.809 C 127.504 104.832,127.512 104.857,133.599 108.717 C 134.697 109.413,136.467 110.566,137.533 111.279 C 138.598 111.992,139.516 112.575,139.572 112.575 C 139.628 112.575,140.842 113.351,142.270 114.299 C 146.113 116.850,143.911 116.667,168.732 116.498 C 182.572 116.404,190.872 116.443,191.160 116.604 C 192.385 117.290,190.738 118.213,187.625 118.585 C 185.530 118.836,184.500 119.373,184.291 120.325 C 183.719 122.928,182.117 123.382,172.189 123.750 C 155.529 124.369,155.984 124.015,156.487 135.964 C 156.981 147.693,155.741 146.903,173.660 146.905 C 184.933 146.906,186.513 146.956,187.048 147.331 C 187.913 147.936,187.703 148.800,186.560 149.342 C 186.048 149.585,185.274 150.157,184.841 150.614 L 184.052 151.444 183.849 162.149 C 183.737 168.037,183.521 183.752,183.368 197.073 C 183.208 211.029,182.973 222.071,182.812 223.133 C 182.338 226.271,182.059 226.080,187.686 226.468 C 192.894 226.827,193.559 226.991,193.429 227.880 C 193.195 229.482,191.125 229.541,134.664 229.543 C 96.885 229.545,82.507 229.632,78.244 229.884 C 75.096 230.070,69.827 230.335,66.534 230.473 C 50.153 231.161,34.522 232.865,25.993 234.894 C 23.994 235.369,23.440 235.359,23.242 234.843 C 22.919 234.002,23.724 233.681,28.609 232.696 C 33.444 231.721,43.289 230.493,51.630 229.823 C 73.519 228.066,100.553 227.640,162.394 228.077 C 183.030 228.223,182.316 228.275,181.389 226.705 C 180.938 225.942,180.922 225.653,181.202 223.315 C 181.481 220.992,181.741 206.725,182.269 164.713 L 182.435 151.515 183.300 150.125 C 183.776 149.360,184.165 148.682,184.165 148.618 C 184.165 148.555,178.771 148.503,172.178 148.503 C 158.795 148.503,159.193 148.555,157.065 146.545 C 155.281 144.860,155.174 144.309,154.988 135.941 C 154.727 124.234,155.579 122.962,163.939 122.578 C 166.061 122.481,169.415 122.291,171.391 122.157 C 173.367 122.022,176.217 121.907,177.724 121.901 C 181.442 121.885,183.100 120.900,183.100 118.707 L 183.100 117.868 164.271 117.909 C 153.916 117.932,145.203 117.858,144.910 117.745 C 144.432 117.562,141.809 115.894,136.399 112.334 C 135.377 111.661,134.328 110.991,134.067 110.845 C 126.078 106.361,125.411 104.706,130.082 100.956 C 134.494 97.413,140.572 92.745,141.807 91.949 L 143.047 91.151 149.834 91.224 C 153.566 91.264,158.536 91.413,160.878 91.555 C 166.526 91.898,182.641 92.214,183.216 91.993 C 183.628 91.835,183.613 91.738,183.053 90.953 C 182.453 90.111,182.434 89.910,182.388 83.874 C 182.363 80.458,182.283 77.603,182.211 77.531 C 182.138 77.459,178.542 77.415,174.218 77.433 C 160.812 77.490,159.681 76.441,159.681 63.957 C 159.681 60.123,160.600 58.308,163.273 56.863 C 164.310 56.303,164.597 56.287,174.185 56.287 C 180.572 56.287,184.032 56.194,184.032 56.021 C 184.032 55.875,183.679 55.235,183.248 54.599 C 181.821 52.494,182.188 49.243,183.963 48.257 C 185.112 47.619,196.014 47.782,197.100 48.453 " stroke="none" fill="#ffffff" fill-rule="evenodd"></path></g></svg>