<svg id="svg" xmlns="http://www.w3.org/2000/svg" xmlns:xlink="http://www.w3.org/1999/xlink" width="400" height="400" viewBox="0, 0, 400,400"><g id="svgg"><path id="path0" d="M80.217 72.945 C 74.005 75.767,71.998 79.683,72.005 88.973 C 72.012 98.661,74.569 103.323,81.086 105.529 L 83.750 106.431 84.000 204.954 L 84.250 303.477 85.636 304.864 C 87.733 306.961,91.046 306.850,93.041 304.617 L 94.500 302.984 94.500 204.742 L 94.500 106.500 100.000 106.500 L 105.500 106.500 105.500 215.712 L 105.500 324.923 106.794 326.462 C 108.199 328.130,111.433 328.606,113.575 327.460 C 116.095 326.111,116.000 329.439,116.000 242.224 C 116.000 197.505,116.169 161.000,116.375 161.103 C 122.965 164.377,124.816 165.043,130.625 166.237 L 132.000 166.519 132.000 174.947 C 132.000 182.787,131.915 183.567,130.784 186.125 C 123.336 202.966,123.275 222.962,130.623 238.848 C 131.647 241.061,131.755 242.205,131.992 253.417 L 132.250 265.584 133.883 267.042 L 135.516 268.500 226.541 268.500 C 288.015 268.500,317.878 268.333,318.528 267.985 C 320.724 266.810,321.000 265.197,321.000 253.539 C 321.000 242.912,321.043 242.431,322.237 239.731 C 329.934 222.327,329.934 203.173,322.237 185.769 C 321.040 183.063,321.000 182.604,321.000 171.711 C 321.000 155.097,322.948 156.500,299.876 156.500 L 282.186 156.500 284.287 152.315 C 293.623 133.720,281.980 111.251,260.250 105.928 C 240.700 101.140,218.084 109.077,193.580 129.325 C 166.641 151.586,157.673 156.099,140.250 156.165 C 132.791 156.192,129.279 155.572,124.661 153.411 C 113.181 148.037,113.023 132.250,124.451 132.250 C 130.154 132.250,133.596 135.905,131.750 140.001 C 128.420 147.385,137.892 151.568,141.582 144.342 C 148.286 131.213,131.938 116.991,116.814 122.794 C 116.082 123.075,116.000 122.272,116.000 114.823 L 116.000 106.539 117.883 106.032 C 131.264 102.428,132.779 78.817,120.000 73.039 C 116.693 71.544,83.475 71.465,80.217 72.945 M116.794 83.653 C 119.003 86.223,118.250 94.721,115.728 95.689 C 113.010 96.732,85.046 95.992,83.709 94.841 C 80.811 92.349,81.748 83.345,85.000 82.425 C 85.688 82.231,92.851 82.112,100.919 82.161 L 115.588 82.250 116.794 83.653 M258.210 116.313 C 277.682 121.300,283.965 146.555,267.722 154.551 C 256.802 159.927,244.362 150.645,249.271 140.782 C 251.742 135.817,258.224 135.327,259.256 140.028 C 260.728 146.730,269.521 145.539,269.489 138.643 C 269.445 129.067,257.213 123.150,247.609 128.059 C 238.670 132.629,234.920 144.859,239.603 154.173 C 240.135 155.231,240.477 156.189,240.365 156.302 C 240.252 156.415,225.701 156.449,208.029 156.379 L 175.899 156.250 180.824 152.904 C 183.533 151.064,188.225 147.518,191.250 145.023 C 209.328 130.111,214.204 126.562,222.477 122.289 C 234.805 115.922,248.039 113.709,258.210 116.313 M310.505 176.375 C 310.510 185.429,310.554 185.844,311.810 188.500 C 319.352 204.450,319.310 222.056,311.693 237.108 C 310.563 239.342,310.500 239.958,310.500 248.733 L 310.500 258.000 226.500 258.000 L 142.500 258.000 142.500 248.625 C 142.499 239.279,142.495 239.240,141.022 236.128 C 134.055 221.401,133.840 206.121,140.388 191.004 L 142.231 186.750 142.386 176.875 L 142.540 167.000 226.520 167.000 L 310.500 167.000 310.505 176.375 M147.153 196.707 L 145.750 197.913 145.750 212.500 L 145.750 227.087 147.153 228.293 C 151.079 231.670,153.500 229.161,153.500 221.714 L 153.500 216.000 158.457 216.000 L 163.414 216.000 163.582 221.733 C 163.778 228.409,164.212 229.227,167.560 229.227 C 171.460 229.227,171.500 229.055,171.500 212.422 L 171.500 197.955 170.213 196.668 C 169.147 195.602,168.617 195.431,167.123 195.674 C 164.137 196.158,163.771 196.891,163.579 202.767 L 163.409 208.000 158.454 208.000 L 153.500 208.000 153.500 202.786 C 153.500 195.866,150.960 193.432,147.153 196.707 M188.965 196.153 C 170.026 201.516,173.617 229.250,193.250 229.250 C 207.859 229.250,215.350 212.351,205.727 201.108 C 202.090 196.859,194.448 194.600,188.965 196.153 M222.250 195.938 C 211.112 198.867,211.648 210.615,223.123 215.057 C 228.528 217.150,229.730 217.989,229.292 219.368 C 228.536 221.749,223.755 221.978,221.089 219.762 C 215.305 214.953,209.541 219.927,214.875 225.124 C 222.834 232.878,236.682 229.474,237.397 219.588 C 237.797 214.062,235.418 211.313,227.440 208.080 C 222.227 205.967,221.309 204.701,224.357 203.826 C 225.678 203.448,226.445 203.600,228.657 204.683 C 233.442 207.024,236.539 206.102,236.647 202.305 C 236.764 198.179,228.174 194.381,222.250 195.938 M241.935 196.988 C 239.010 199.914,241.003 203.500,245.555 203.500 L 248.000 203.500 248.000 215.464 L 248.000 227.427 249.317 228.464 C 251.050 229.826,252.626 229.773,254.347 228.294 L 255.750 227.088 255.901 215.294 L 256.051 203.500 258.298 203.500 C 261.417 203.500,263.249 201.729,262.826 199.123 C 262.300 195.883,261.955 195.768,252.227 195.593 L 243.488 195.435 241.935 196.988 M270.200 196.189 C 267.993 197.186,268.000 197.130,268.000 212.791 C 268.000 230.651,267.451 229.818,278.953 229.424 C 285.495 229.200,286.500 228.638,286.500 225.201 C 286.500 222.145,285.391 221.500,280.139 221.500 L 276.000 221.500 276.000 219.000 L 276.000 216.500 279.773 216.500 C 284.175 216.500,286.000 215.328,286.000 212.500 C 286.000 209.672,284.175 208.500,279.773 208.500 L 276.000 208.500 276.000 206.000 L 276.000 203.500 280.250 203.500 C 286.139 203.500,288.928 199.853,285.448 196.702 C 284.057 195.443,272.698 195.060,270.200 196.189 M293.227 196.727 L 292.000 197.955 292.000 212.422 C 292.000 230.407,291.457 229.175,299.492 229.420 C 305.676 229.609,307.547 229.143,308.435 227.193 C 310.029 223.695,308.038 221.500,303.273 221.500 L 300.000 221.500 300.000 210.274 C 300.000 198.352,299.781 197.016,297.671 196.055 C 295.796 195.201,294.568 195.386,293.227 196.727 M198.099 205.256 C 206.701 210.949,199.307 224.779,189.888 220.613 C 182.905 217.524,182.785 207.657,189.692 204.429 C 192.297 203.211,195.482 203.525,198.099 205.256 M85.748 319.207 C 84.326 320.629,83.764 322.493,84.216 324.293 C 85.656 330.031,94.500 328.919,94.500 323.000 C 94.500 318.603,88.815 316.140,85.748 319.207 " stroke="none" fill="#000000" fill-rule="evenodd"></path></g></svg>