<svg id="svg" xmlns="http://www.w3.org/2000/svg" xmlns:xlink="http://www.w3.org/1999/xlink" width="400" height="400" viewBox="0, 0, 400,400"><g id="svgg"><path id="path0" d="M132.500 73.000 C 131.532 73.968,131.500 74.667,131.500 95.150 L 131.500 116.300 128.580 116.903 C 118.207 119.046,119.581 136.117,130.345 138.818 L 131.500 139.108 131.500 222.304 L 131.500 305.500 120.824 305.500 C 110.547 305.500,110.085 305.543,108.461 306.637 C 101.430 311.375,103.860 323.032,112.717 327.055 C 115.888 328.495,284.112 328.495,287.283 327.055 C 296.140 323.032,298.570 311.375,291.539 306.637 C 289.937 305.557,289.392 305.500,280.676 305.500 L 271.500 305.500 271.500 222.289 L 271.500 139.078 273.177 138.524 C 283.920 134.979,284.330 118.310,273.713 116.718 L 271.500 116.386 271.500 110.484 C 271.500 101.742,271.258 101.500,262.525 101.500 L 257.000 101.500 257.000 87.750 C 257.000 72.086,256.978 72.000,253.036 72.000 C 248.986 72.000,248.940 72.222,249.106 91.040 C 249.283 111.174,248.538 109.500,257.327 109.500 L 263.500 109.500 263.500 113.000 L 263.500 116.500 201.500 116.500 L 139.500 116.500 139.500 105.500 L 139.500 94.500 143.000 94.500 L 146.500 94.500 146.500 101.000 C 146.500 108.440,146.968 109.500,150.250 109.500 C 154.379 109.500,154.603 108.405,154.405 89.177 C 154.228 71.929,154.245 72.000,150.250 72.000 C 146.841 72.000,146.500 72.743,146.500 80.164 L 146.500 86.500 143.041 86.500 L 139.582 86.500 139.416 80.301 C 139.275 75.053,139.104 73.941,138.298 73.051 C 137.024 71.646,133.881 71.619,132.500 73.000 M162.500 73.000 C 161.540 73.960,161.500 74.667,161.500 90.750 C 161.500 111.648,160.211 109.500,172.750 109.500 C 185.606 109.500,184.632 111.199,184.405 89.177 C 184.209 70.111,185.472 72.000,172.923 72.000 C 164.167 72.000,163.429 72.071,162.500 73.000 M191.327 72.914 C 188.800 75.708,190.849 79.500,194.885 79.500 L 197.442 79.500 197.596 93.545 L 197.750 107.590 198.930 108.545 C 200.486 109.804,203.218 109.782,204.500 108.500 C 205.452 107.548,205.500 106.833,205.500 93.500 L 205.500 79.500 208.250 79.500 C 211.607 79.500,213.000 78.400,213.000 75.750 C 213.000 72.244,212.258 72.000,201.577 72.000 C 193.084 72.000,192.073 72.090,191.327 72.914 M220.517 73.342 C 219.485 74.654,219.465 75.044,219.606 91.040 C 219.787 111.565,218.541 109.500,230.740 109.500 C 240.782 109.500,242.000 109.109,242.000 105.884 C 242.000 102.321,240.319 101.500,233.025 101.500 L 227.500 101.500 227.500 98.000 L 227.500 94.500 233.731 94.500 C 240.684 94.500,242.000 93.923,242.000 90.873 C 242.000 87.381,240.122 86.500,232.675 86.500 L 227.500 86.500 227.500 83.000 L 227.500 79.500 233.750 79.500 C 240.914 79.500,242.000 79.006,242.000 75.750 C 242.000 72.256,241.234 72.000,230.786 72.000 L 221.573 72.000 220.517 73.342 M176.500 90.500 L 176.500 101.500 173.000 101.500 L 169.500 101.500 169.500 90.500 L 169.500 79.500 173.000 79.500 L 176.500 79.500 176.500 90.500 M273.405 125.841 C 273.611 127.286,272.268 129.811,270.870 130.610 C 269.989 131.114,258.956 131.303,219.081 131.500 L 168.411 131.750 167.456 132.930 C 166.196 134.486,166.218 137.218,167.500 138.500 C 168.486 139.486,169.167 139.500,216.000 139.500 L 263.500 139.500 263.500 222.500 L 263.500 305.500 256.519 305.500 C 248.741 305.500,247.500 305.999,247.500 309.127 C 247.500 313.353,248.244 313.500,269.575 313.500 L 287.500 313.500 287.500 314.992 C 287.500 317.062,285.254 319.437,282.750 320.015 C 280.081 320.630,119.919 320.630,117.250 320.015 C 114.750 319.438,112.500 317.061,112.500 314.998 L 112.500 313.512 174.043 313.381 L 235.587 313.250 236.793 311.847 C 238.273 310.127,238.327 308.550,236.964 306.817 L 235.927 305.500 225.714 305.500 L 215.500 305.500 215.500 272.774 C 215.500 237.866,215.512 238.041,213.015 237.006 C 210.079 235.790,189.562 236.562,188.455 237.930 C 187.536 239.066,187.500 240.378,187.500 272.305 L 187.500 305.500 163.500 305.500 L 139.500 305.500 139.500 222.500 L 139.500 139.500 146.945 139.500 C 155.631 139.500,156.600 139.128,156.600 135.794 C 156.600 131.987,155.997 131.786,143.772 131.500 C 131.781 131.220,130.854 130.954,129.678 127.453 C 128.613 124.286,123.545 124.485,201.688 124.623 L 273.250 124.750 273.405 125.841 M147.500 148.000 C 145.967 149.533,145.941 181.941,147.472 183.472 C 148.907 184.907,150.783 185.094,161.953 184.914 L 172.088 184.750 173.313 183.325 L 174.538 181.900 174.394 165.502 C 174.260 150.192,174.187 149.034,173.298 148.052 C 171.855 146.458,149.087 146.413,147.500 148.000 M188.519 148.094 C 186.969 149.758,186.926 181.926,188.472 183.472 C 189.907 184.907,191.783 185.094,202.953 184.914 L 213.088 184.750 214.294 183.347 L 215.500 181.944 215.500 165.790 C 215.500 150.203,215.464 149.588,214.464 148.317 L 213.427 147.000 201.483 147.000 C 189.840 147.000,189.513 147.028,188.519 148.094 M229.702 148.052 C 228.806 149.043,228.750 150.084,228.750 165.789 L 228.750 182.472 229.889 183.611 C 231.705 185.427,254.069 185.391,255.544 183.570 C 257.058 181.700,257.018 149.518,255.500 148.000 C 253.912 146.412,231.145 146.459,229.702 148.052 M166.500 158.500 L 166.500 162.000 160.500 162.000 L 154.500 162.000 154.500 158.500 L 154.500 155.000 160.500 155.000 L 166.500 155.000 166.500 158.500 M207.500 158.500 L 207.500 162.000 201.500 162.000 L 195.500 162.000 195.500 158.500 L 195.500 155.000 201.500 155.000 L 207.500 155.000 207.500 158.500 M248.500 158.500 L 248.500 162.000 242.500 162.000 L 236.500 162.000 236.500 158.500 L 236.500 155.000 242.500 155.000 L 248.500 155.000 248.500 158.500 M166.500 173.500 L 166.500 177.000 160.500 177.000 L 154.500 177.000 154.500 173.500 L 154.500 170.000 160.500 170.000 L 166.500 170.000 166.500 173.500 M207.500 173.500 L 207.500 177.000 201.500 177.000 L 195.500 177.000 195.500 173.500 L 195.500 170.000 201.500 170.000 L 207.500 170.000 207.500 173.500 M248.500 173.500 L 248.500 177.000 242.500 177.000 L 236.500 177.000 236.500 173.500 L 236.500 170.000 242.500 170.000 L 248.500 170.000 248.500 173.500 M148.658 191.990 C 146.605 192.843,146.500 193.767,146.500 210.967 C 146.500 231.816,144.760 229.500,160.423 229.500 C 175.947 229.500,174.211 231.798,174.394 210.998 L 174.538 194.600 173.313 193.175 L 172.088 191.750 160.919 191.643 C 154.776 191.584,149.258 191.740,148.658 191.990 M189.700 192.214 C 187.478 193.181,187.500 192.993,187.500 210.954 L 187.500 227.326 188.657 228.413 C 189.778 229.466,190.187 229.500,201.621 229.500 L 213.427 229.500 214.464 228.183 C 215.463 226.912,215.500 226.294,215.500 210.956 C 215.500 193.705,215.389 192.908,212.856 192.025 C 210.548 191.220,191.628 191.375,189.700 192.214 M231.010 192.128 C 228.568 193.392,228.484 194.068,228.622 211.420 L 228.750 227.589 229.930 228.545 C 231.784 230.045,253.994 230.006,255.500 228.500 C 257.099 226.901,257.052 194.155,255.449 192.702 C 254.101 191.482,233.208 190.991,231.010 192.128 M166.500 203.000 L 166.500 206.500 160.500 206.500 L 154.500 206.500 154.500 203.000 L 154.500 199.500 160.500 199.500 L 166.500 199.500 166.500 203.000 M207.500 203.000 L 207.500 206.500 201.500 206.500 L 195.500 206.500 195.500 203.000 L 195.500 199.500 201.500 199.500 L 207.500 199.500 207.500 203.000 M248.500 203.000 L 248.500 206.500 242.500 206.500 L 236.500 206.500 236.500 203.000 L 236.500 199.500 242.500 199.500 L 248.500 199.500 248.500 203.000 M166.500 218.000 L 166.500 221.500 160.500 221.500 L 154.500 221.500 154.500 218.000 L 154.500 214.500 160.500 214.500 L 166.500 214.500 166.500 218.000 M207.500 218.000 L 207.500 221.500 201.500 221.500 L 195.500 221.500 195.500 218.000 L 195.500 214.500 201.500 214.500 L 207.500 214.500 207.500 218.000 M248.500 218.000 L 248.500 221.500 242.500 221.500 L 236.500 221.500 236.500 218.000 L 236.500 214.500 242.500 214.500 L 248.500 214.500 248.500 218.000 M148.658 237.003 C 146.547 237.854,146.500 238.439,146.500 263.880 L 146.500 288.326 147.657 289.413 C 149.345 290.998,171.134 291.111,173.070 289.544 L 174.250 288.589 174.389 264.020 L 174.528 239.451 173.052 237.975 L 171.577 236.500 160.663 236.532 C 154.661 236.549,149.258 236.761,148.658 237.003 M230.183 237.681 L 228.750 238.913 228.602 262.081 C 228.398 293.845,226.743 290.500,242.663 290.500 C 258.368 290.500,256.500 294.155,256.500 263.420 C 256.500 233.119,258.353 236.802,243.006 236.599 L 231.616 236.449 230.183 237.681 M166.500 248.000 L 166.500 251.500 160.500 251.500 L 154.500 251.500 154.500 248.000 L 154.500 244.500 160.500 244.500 L 166.500 244.500 166.500 248.000 M207.500 248.000 L 207.500 251.500 201.500 251.500 L 195.500 251.500 195.500 248.000 L 195.500 244.500 201.500 244.500 L 207.500 244.500 207.500 248.000 M248.500 248.000 L 248.500 251.500 242.500 251.500 L 236.500 251.500 236.500 248.000 L 236.500 244.500 242.500 244.500 L 248.500 244.500 248.500 248.000 M166.500 271.000 L 166.500 282.500 160.500 282.500 L 154.500 282.500 154.500 271.000 L 154.500 259.500 160.500 259.500 L 166.500 259.500 166.500 271.000 M207.500 282.500 L 207.500 305.500 201.500 305.500 L 195.500 305.500 195.500 282.500 L 195.500 259.500 201.500 259.500 L 207.500 259.500 207.500 282.500 M248.500 271.000 L 248.500 282.500 242.500 282.500 L 236.500 282.500 236.500 271.000 L 236.500 259.500 242.500 259.500 L 248.500 259.500 248.500 271.000 " stroke="none" fill="#000000" fill-rule="evenodd"></path></g></svg>