<svg id="svg" xmlns="http://www.w3.org/2000/svg" xmlns:xlink="http://www.w3.org/1999/xlink" width="400" height="400" viewBox="0, 0, 400,400"><g id="svgg"><path id="path0" d="M184.750 72.799 C 184.200 72.931,183.225 73.152,182.582 73.290 C 180.494 73.738,179.000 75.881,179.000 78.428 L 179.000 80.711 193.519 95.260 L 208.038 109.810 203.597 109.597 C 189.352 108.916,174.170 114.589,163.803 124.466 C 156.148 131.758,154.339 135.916,157.462 139.038 L 158.923 140.500 187.462 140.500 C 203.158 140.500,216.000 140.572,216.000 140.661 C 216.000 140.749,215.636 141.891,215.191 143.197 C 209.863 158.833,229.278 173.915,242.560 164.458 L 243.889 163.511 245.218 165.253 C 268.165 195.338,286.369 261.106,286.493 314.375 L 286.500 317.500 267.750 317.500 L 249.000 317.500 249.000 306.962 L 249.000 296.423 247.538 294.962 C 246.393 293.817,245.628 293.500,244.006 293.500 C 239.012 293.500,238.500 294.800,238.500 307.475 L 238.500 317.500 200.750 317.500 L 163.000 317.500 162.993 295.125 C 162.983 266.482,162.542 264.411,154.805 256.712 C 139.710 241.689,113.631 249.440,109.254 270.250 C 108.671 273.021,108.516 278.307,108.509 295.625 L 108.500 317.500 102.750 317.500 L 97.000 317.500 97.000 276.000 L 97.000 234.500 167.750 234.500 L 238.500 234.500 238.500 244.525 C 238.500 257.200,239.012 258.500,244.006 258.500 C 245.628 258.500,246.393 258.183,247.538 257.038 L 249.000 255.577 249.000 245.038 L 249.000 234.500 254.682 234.500 C 266.297 234.500,266.049 229.946,253.525 213.283 C 233.667 186.863,203.718 167.297,172.625 160.431 L 167.500 159.299 162.375 160.451 C 130.733 167.564,101.479 186.668,81.475 213.283 C 68.864 230.062,68.674 234.500,80.568 234.500 L 86.500 234.500 86.500 276.000 L 86.500 317.500 80.568 317.500 C 74.826 317.500,74.594 317.542,73.318 318.818 C 71.439 320.697,71.439 324.303,73.318 326.182 L 74.636 327.500 200.000 327.500 L 325.364 327.500 326.682 326.182 C 330.282 322.581,327.649 317.500,322.182 317.500 L 319.000 317.500 318.995 312.375 C 318.946 260.009,302.697 196.218,279.883 158.828 L 278.100 155.905 278.354 151.078 C 278.599 146.425,278.406 145.250,276.764 141.375 C 276.414 140.549,277.751 140.500,300.878 140.500 L 325.364 140.500 326.682 139.182 C 329.735 136.128,327.365 130.517,320.359 124.218 C 309.624 114.566,297.100 109.765,282.629 109.755 L 276.008 109.750 290.629 95.122 L 305.250 80.494 305.250 78.287 C 305.250 73.756,302.270 72.494,291.600 72.509 C 271.905 72.536,254.095 83.002,244.200 100.366 L 242.107 104.038 240.275 100.762 C 232.967 87.693,220.919 78.270,206.257 74.152 C 201.879 72.922,187.902 72.043,184.750 72.799 M202.000 84.025 C 211.087 86.202,220.998 92.335,226.400 99.124 C 229.190 102.630,233.906 111.000,233.091 111.000 C 232.821 111.000,231.477 111.756,230.103 112.681 L 227.605 114.361 211.931 98.681 C 203.310 90.056,196.592 83.002,197.003 83.004 C 197.414 83.005,199.662 83.465,202.000 84.025 M271.299 99.451 L 254.855 115.901 252.516 114.076 L 250.178 112.250 251.383 109.500 C 257.323 95.936,273.731 83.746,286.997 83.040 C 287.408 83.018,280.344 90.403,271.299 99.451 M212.628 121.477 C 214.761 122.048,217.742 123.062,219.253 123.730 L 222.000 124.945 222.000 127.722 L 222.000 130.500 197.377 130.500 L 172.753 130.500 175.252 128.707 C 186.011 120.984,200.400 118.201,212.628 121.477 M243.823 121.035 C 249.759 123.909,249.684 132.127,243.697 135.026 C 235.576 138.957,228.461 128.333,235.078 122.155 C 237.572 119.827,240.541 119.446,243.823 121.035 M293.250 121.412 C 299.440 123.092,309.555 128.067,310.767 130.028 C 310.949 130.322,301.180 130.500,284.891 130.500 L 258.724 130.500 258.911 128.540 C 259.479 122.584,281.059 118.105,293.250 121.412 M264.432 142.866 C 272.344 148.725,265.608 160.788,256.803 156.526 C 250.787 153.614,250.757 145.540,256.750 142.469 C 259.162 141.233,262.457 141.403,264.432 142.866 M231.636 144.209 C 233.532 145.197,236.071 146.062,237.659 146.260 C 244.300 147.090,239.736 156.583,232.696 156.583 C 226.443 156.583,222.770 149.238,226.444 144.079 C 227.827 142.137,227.652 142.132,231.636 144.209 M277.437 177.000 C 296.597 215.182,308.450 266.941,308.495 312.625 L 308.500 317.500 302.846 317.500 L 297.192 317.500 296.589 304.875 C 294.129 253.402,281.951 206.564,262.156 172.437 L 259.654 168.124 262.396 167.841 C 263.906 167.685,266.397 166.922,267.944 166.142 C 271.436 164.380,270.658 163.490,277.437 177.000 M170.459 174.498 C 177.102 182.480,183.362 197.148,187.985 215.561 C 189.093 219.976,190.000 223.793,190.000 224.044 C 190.000 224.312,180.728 224.500,167.500 224.500 C 154.272 224.500,145.000 224.312,145.000 224.044 C 145.000 223.793,145.907 219.976,147.015 215.561 C 151.638 197.148,157.898 182.480,164.541 174.498 C 167.593 170.831,167.407 170.831,170.459 174.498 M147.657 181.822 C 142.583 192.155,139.038 203.141,134.247 223.375 L 133.981 224.500 110.197 224.500 L 86.413 224.500 87.970 222.375 C 103.431 201.274,124.031 185.122,146.750 176.287 C 149.225 175.325,151.250 174.529,151.251 174.519 C 151.251 174.508,149.634 177.795,147.657 181.822 M194.152 178.805 C 214.203 187.647,232.831 202.996,247.030 222.375 L 248.587 224.500 224.803 224.500 L 201.019 224.500 200.753 223.375 C 195.943 203.063,192.409 192.123,187.344 181.866 L 183.750 174.589 186.500 175.616 C 188.012 176.181,191.456 177.616,194.152 178.805 M183.694 258.163 C 175.837 261.126,174.377 265.051,174.594 282.611 C 174.770 296.844,175.028 298.037,178.717 301.620 C 182.447 305.242,182.398 305.233,200.454 305.395 L 216.658 305.540 219.316 304.239 C 226.048 300.946,227.000 298.130,227.000 281.500 C 227.000 264.908,226.065 262.115,219.401 258.794 L 216.804 257.500 201.027 257.538 C 190.255 257.564,184.756 257.762,183.694 258.163 M142.925 260.946 C 146.196 262.638,149.316 265.775,150.865 268.929 L 152.250 271.750 152.394 294.625 L 152.538 317.500 135.745 317.500 L 118.953 317.500 119.101 294.875 L 119.250 272.250 120.654 269.250 C 124.545 260.933,135.212 256.956,142.925 260.946 M213.936 268.053 C 216.375 268.903,216.500 269.571,216.500 281.717 C 216.500 296.793,217.939 295.645,199.331 295.404 L 187.412 295.250 186.206 293.847 C 183.085 290.216,184.695 268.516,188.135 267.852 C 190.710 267.354,212.417 267.523,213.936 268.053 M240.248 272.207 C 238.826 273.629,238.264 275.493,238.716 277.293 C 240.156 283.031,249.000 281.919,249.000 276.000 C 249.000 271.603,243.315 269.140,240.248 272.207 " stroke="none" fill="#000000" fill-rule="evenodd"></path></g></svg>