<svg id="svg" version="1.1" xmlns="http://www.w3.org/2000/svg" xmlns:xlink="http://www.w3.org/1999/xlink" width="400" height="592.170818505338" viewBox="0, 0, 400,592.170818505338"><g id="svgg"><path id="path0" d="M239.556 15.427 C 232.804 16.758,230.692 20.174,230.914 29.405 C 231.059 35.445,231.268 36.976,232.606 41.800 C 232.912 42.900,233.269 44.790,233.402 46.000 C 233.534 47.210,233.895 50.000,234.205 52.200 C 234.841 56.715,235.390 75.006,236.007 112.200 C 236.483 140.941,237.989 186.671,238.765 196.000 C 238.958 198.310,239.135 202.360,239.158 205.000 C 239.222 212.031,242.166 245.832,243.166 251.000 C 243.378 252.100,243.567 254.350,243.586 256.000 C 243.604 257.650,243.792 259.720,244.003 260.600 C 244.214 261.480,244.577 264.810,244.809 268.000 C 245.042 271.190,245.405 274.250,245.616 274.800 C 245.827 275.350,246.176 278.140,246.390 281.000 C 246.751 285.796,247.730 294.920,248.773 303.190 C 249.008 305.054,249.200 307.665,249.200 308.992 C 249.200 310.319,249.383 312.034,249.606 312.803 C 249.830 313.571,250.184 316.720,250.394 319.800 C 250.769 325.329,251.513 333.262,252.606 343.400 C 252.914 346.260,253.538 354.000,253.992 360.600 C 255.171 377.741,255.129 378.277,252.850 375.102 C 252.179 374.166,251.488 373.220,251.315 373.000 C 250.490 371.950,247.600 367.547,247.600 367.340 C 247.600 367.037,245.104 362.833,243.244 360.004 C 240.972 356.547,236.680 350.733,231.430 344.000 C 228.772 340.590,226.094 337.080,225.480 336.200 C 224.866 335.320,223.385 333.250,222.188 331.600 C 219.519 327.919,214.347 320.230,213.443 318.600 C 213.077 317.940,212.453 316.860,212.057 316.200 C 211.178 314.735,209.174 310.795,204.632 301.600 C 202.731 297.750,200.272 292.980,199.168 291.000 C 198.064 289.020,196.894 286.860,196.567 286.200 C 196.240 285.540,195.562 284.280,195.059 283.400 C 194.557 282.520,193.268 280.180,192.194 278.200 C 191.121 276.220,189.834 273.880,189.335 273.000 C 188.835 272.120,188.150 270.860,187.811 270.200 C 187.472 269.540,186.791 268.329,186.297 267.509 C 185.804 266.690,184.884 265.078,184.253 263.928 C 183.623 262.777,182.637 261.108,182.064 260.218 C 181.490 259.328,180.819 258.240,180.572 257.800 C 180.326 257.360,179.781 256.431,179.362 255.735 C 176.266 250.593,172.823 244.786,171.900 243.150 C 168.868 237.776,168.364 236.838,167.405 234.800 C 166.835 233.590,166.205 232.330,166.004 232.000 C 165.501 231.173,164.130 228.410,163.622 227.200 C 163.391 226.650,163.030 225.930,162.820 225.600 C 162.480 225.065,160.013 219.788,158.613 216.600 C 158.323 215.940,157.707 214.570,157.243 213.556 C 156.779 212.542,156.400 211.522,156.400 211.289 C 156.400 211.056,156.132 210.355,155.805 209.732 C 154.920 208.047,153.600 204.897,153.600 204.471 C 153.600 204.266,153.330 203.874,153.000 203.600 C 152.670 203.326,152.400 202.842,152.400 202.524 C 152.400 201.939,148.568 194.126,146.651 190.800 C 146.080 189.810,145.424 188.567,145.193 188.037 C 144.961 187.508,144.275 186.338,143.667 185.437 C 143.059 184.537,142.427 183.530,142.262 183.200 C 137.628 173.938,121.262 154.004,111.200 145.366 C 107.587 142.265,101.288 137.427,98.683 135.753 C 97.097 134.735,95.350 133.611,94.800 133.255 C 93.120 132.171,92.562 131.869,88.512 129.855 C 86.360 128.786,84.150 127.682,83.600 127.403 C 81.682 126.428,74.181 124.043,71.600 123.587 C 70.170 123.334,68.190 122.974,67.200 122.788 C 64.896 122.352,57.541 122.348,55.200 122.780 C 48.569 124.004,46.841 124.661,44.122 126.989 C 40.281 130.276,40.386 134.903,44.364 137.690 C 46.786 139.386,49.099 152.779,50.019 170.439 C 50.241 174.707,50.598 178.722,50.812 179.360 C 51.025 179.998,51.200 182.084,51.200 183.995 C 51.200 185.907,51.464 190.245,51.787 193.636 C 52.110 197.026,52.566 203.220,52.802 207.400 C 53.038 211.580,53.396 215.810,53.598 216.800 C 53.800 217.790,53.976 220.130,53.989 222.000 C 54.002 223.870,54.367 229.810,54.800 235.200 C 55.233 240.590,55.591 246.910,55.594 249.245 C 55.597 251.580,55.780 254.441,56.000 255.602 C 56.221 256.763,56.581 262.233,56.800 267.757 C 57.020 273.281,57.468 281.580,57.797 286.200 C 58.125 290.820,58.395 296.510,58.397 298.845 C 58.398 301.180,58.583 304.057,58.807 305.237 C 59.031 306.417,59.385 311.977,59.593 317.591 C 59.935 326.788,60.215 331.232,61.612 349.600 C 61.838 352.570,62.201 357.610,62.418 360.800 C 62.635 363.990,62.996 368.850,63.218 371.600 C 63.441 374.350,63.805 379.621,64.027 383.313 C 64.248 387.006,64.607 390.492,64.823 391.060 C 65.039 391.629,65.382 395.002,65.586 398.556 C 65.789 402.111,66.056 405.285,66.179 405.609 C 66.301 405.934,66.674 408.810,67.007 412.000 C 67.592 417.606,67.968 420.507,68.822 426.000 C 69.044 427.430,69.401 429.770,69.614 431.200 C 69.828 432.630,70.282 435.150,70.625 436.800 C 70.967 438.450,71.601 441.510,72.034 443.600 C 72.468 445.690,73.087 448.510,73.411 449.866 C 73.735 451.222,74.000 452.711,74.000 453.174 C 74.000 453.638,74.346 455.318,74.770 456.908 C 75.879 461.074,76.920 465.510,78.028 470.800 C 78.281 472.010,78.725 473.720,79.014 474.600 C 79.303 475.480,79.659 476.830,79.806 477.600 C 79.953 478.370,80.327 479.771,80.636 480.714 C 80.946 481.657,81.201 482.917,81.202 483.514 C 81.204 484.111,81.456 485.080,81.762 485.667 C 82.068 486.254,82.445 487.484,82.600 488.400 C 82.755 489.316,83.132 490.546,83.438 491.133 C 83.744 491.720,83.996 492.560,83.997 493.000 C 84.000 493.815,85.274 497.940,86.256 500.314 C 86.555 501.036,86.806 501.936,86.814 502.314 C 86.821 502.691,87.175 503.720,87.600 504.600 C 88.025 505.480,88.379 506.380,88.386 506.600 C 88.408 507.229,91.553 514.751,92.290 515.935 C 102.938 533.045,114.064 537.414,126.194 529.250 C 130.584 526.295,132.283 523.833,132.633 519.922 C 132.921 516.710,133.854 514.496,135.219 513.790 C 137.738 512.487,137.767 512.252,138.130 489.800 C 138.804 448.054,138.529 400.173,137.577 393.600 C 137.369 392.170,137.022 385.060,136.806 377.800 C 136.413 364.638,135.580 343.471,134.783 326.400 C 133.394 296.647,133.902 287.600,136.960 287.600 C 138.516 287.600,140.000 289.861,145.893 301.200 C 146.636 302.630,148.584 306.320,150.220 309.400 C 151.857 312.480,153.377 315.450,153.598 316.000 C 153.819 316.550,154.153 317.270,154.339 317.600 C 154.526 317.930,155.450 319.640,156.393 321.400 C 157.880 324.174,161.729 331.009,162.812 332.800 C 163.012 333.130,164.094 334.930,165.217 336.800 C 166.339 338.670,167.963 341.280,168.826 342.600 C 169.688 343.920,170.530 345.270,170.697 345.600 C 171.041 346.281,174.489 351.641,175.641 353.284 C 176.058 353.880,176.400 354.458,176.400 354.568 C 176.400 354.679,177.390 356.223,178.600 358.000 C 179.810 359.777,180.800 361.307,180.800 361.400 C 180.800 361.854,191.938 377.664,192.776 378.400 C 193.773 379.275,203.697 393.601,204.697 395.608 C 204.864 395.943,205.632 397.203,206.405 398.408 C 207.177 399.614,208.024 400.960,208.286 401.400 C 208.549 401.840,209.987 404.248,211.482 406.750 C 215.905 414.155,216.658 415.510,219.839 421.800 C 221.508 425.100,223.082 428.165,223.337 428.611 C 224.332 430.353,228.622 437.718,229.005 438.341 C 230.448 440.691,235.868 448.909,236.868 450.263 C 237.380 450.957,238.070 451.922,238.400 452.407 C 238.991 453.275,244.381 460.432,245.323 461.600 C 245.589 461.930,246.680 463.280,247.746 464.600 C 262.073 482.328,278.254 494.472,285.671 493.061 C 286.402 492.922,287.891 492.625,288.981 492.401 C 291.157 491.954,294.440 492.231,296.000 492.994 C 302.584 496.216,307.205 494.668,303.446 490.501 C 299.833 486.496,300.520 484.139,305.420 483.732 C 308.627 483.465,309.866 482.727,310.067 480.962 C 310.188 479.905,310.454 479.719,313.006 478.905 C 316.825 477.687,317.763 476.204,316.558 473.288 C 315.965 471.856,315.538 471.367,314.788 471.264 C 310.498 470.671,308.552 462.919,311.545 458.340 C 312.455 456.946,313.206 455.445,313.214 455.003 C 313.222 454.562,313.486 453.750,313.800 453.200 C 314.114 452.650,314.378 451.744,314.386 451.187 C 314.394 450.630,314.671 449.190,315.001 447.987 C 316.443 442.743,316.623 420.659,315.252 417.118 C 313.384 412.291,313.608 394.081,315.718 379.200 C 316.079 376.651,316.171 362.634,316.084 323.200 C 316.013 290.493,316.122 268.406,316.374 264.800 C 317.309 251.432,318.016 243.302,318.374 241.800 C 318.584 240.920,318.844 237.950,318.952 235.200 C 319.060 232.450,319.429 228.040,319.771 225.400 C 320.112 222.760,320.581 217.180,320.812 213.000 C 321.893 193.411,322.797 182.729,323.673 179.200 C 324.508 175.834,326.684 160.606,327.389 153.200 C 327.692 150.010,328.139 145.510,328.382 143.200 C 329.569 131.905,329.475 107.106,328.209 97.600 C 327.872 95.070,327.418 91.650,327.200 90.000 C 326.391 83.874,323.913 73.742,322.569 71.068 C 322.256 70.445,321.999 69.725,321.998 69.468 C 321.995 68.811,318.786 62.261,317.112 59.493 C 314.933 55.889,309.941 50.924,306.499 48.935 C 305.454 48.332,304.510 47.736,304.400 47.611 C 304.290 47.486,303.750 47.160,303.200 46.888 C 302.650 46.615,301.715 46.078,301.122 45.696 C 300.528 45.313,298.758 44.190,297.186 43.200 C 291.633 39.701,286.728 36.407,279.400 31.255 C 274.671 27.931,270.125 24.975,268.400 24.104 C 267.850 23.826,266.590 23.130,265.600 22.558 C 262.609 20.827,257.675 18.401,257.121 18.387 C 256.834 18.380,256.251 18.110,255.824 17.787 C 255.396 17.464,254.676 17.199,254.224 17.198 C 253.771 17.196,252.872 16.920,252.227 16.583 C 251.201 16.048,248.470 15.564,243.600 15.053 C 242.830 14.972,241.010 15.140,239.556 15.427 M178.100 17.900 C 171.270 17.998,170.000 18.109,170.000 18.608 C 170.000 19.071,169.424 19.200,167.363 19.200 C 165.062 19.200,164.698 19.302,164.516 20.000 C 164.332 20.702,163.970 20.800,161.553 20.800 C 159.373 20.800,158.800 20.925,158.800 21.400 C 158.800 21.889,158.133 22.000,155.200 22.000 C 151.867 22.000,151.600 22.059,151.600 22.800 C 151.600 23.503,151.333 23.600,149.400 23.600 C 147.711 23.600,147.200 23.739,147.200 24.200 C 147.200 24.689,146.533 24.800,143.600 24.800 C 140.647 24.800,139.869 24.931,139.269 25.531 C 138.868 25.932,138.238 26.377,137.869 26.518 C 137.501 26.659,137.200 26.961,137.200 27.187 C 137.200 27.414,136.373 27.600,135.363 27.600 C 133.862 27.600,133.487 27.746,133.316 28.400 C 133.132 29.102,132.770 29.200,130.353 29.200 C 127.867 29.200,127.600 29.277,127.600 30.000 C 127.600 30.533,127.333 30.800,126.800 30.800 C 126.356 30.800,126.000 31.067,126.000 31.400 C 126.000 31.855,125.507 32.000,123.963 32.000 C 122.262 32.000,121.891 32.132,121.716 32.800 C 121.540 33.473,121.170 33.600,119.382 33.600 C 117.101 33.600,116.000 34.260,116.000 35.629 C 116.000 36.296,115.707 36.400,113.829 36.400 C 112.507 36.400,111.439 36.618,111.100 36.957 C 110.794 37.263,110.196 37.580,109.772 37.660 C 109.233 37.762,108.962 38.198,108.875 39.103 L 108.749 40.400 106.401 40.400 C 103.226 40.400,102.136 40.869,101.805 42.376 C 101.579 43.404,101.348 43.600,100.356 43.600 C 99.675 43.600,99.077 43.854,98.945 44.200 C 98.811 44.548,98.213 44.800,97.520 44.800 C 96.662 44.800,96.266 45.025,96.116 45.600 C 96.001 46.040,95.658 46.400,95.353 46.400 C 95.049 46.400,94.800 46.670,94.800 47.000 C 94.800 47.431,94.359 47.600,93.233 47.600 C 91.278 47.600,90.400 47.923,90.400 48.643 C 90.400 48.949,90.130 49.200,89.800 49.200 C 89.470 49.200,89.200 49.470,89.200 49.800 C 89.200 50.130,88.913 50.400,88.563 50.400 C 88.212 50.400,87.831 50.760,87.716 51.200 C 87.600 51.643,87.170 52.000,86.753 52.000 C 86.339 52.000,86.000 52.250,86.000 52.555 C 86.000 52.874,85.402 53.223,84.600 53.374 C 83.762 53.531,83.200 53.870,83.200 54.218 C 83.200 54.602,82.779 54.800,81.963 54.800 C 81.062 54.800,80.668 55.017,80.516 55.600 C 80.401 56.040,80.058 56.400,79.753 56.400 C 79.388 56.400,79.200 56.875,79.200 57.800 L 79.200 59.200 77.000 59.200 L 74.800 59.200 74.800 60.600 C 74.800 61.733,74.648 62.000,74.000 62.000 C 73.556 62.000,73.200 62.267,73.200 62.600 C 73.200 62.930,72.855 63.200,72.433 63.200 C 71.241 63.200,70.400 63.631,70.400 64.243 C 70.400 64.549,70.130 64.800,69.800 64.800 C 69.470 64.800,69.200 65.058,69.200 65.373 C 69.200 65.688,68.840 66.060,68.400 66.200 C 67.960 66.340,67.600 66.712,67.600 67.027 C 67.600 67.342,67.330 67.600,67.000 67.600 C 66.667 67.600,66.400 67.956,66.400 68.400 C 66.400 68.933,66.133 69.200,65.600 69.200 C 65.160 69.200,64.800 69.449,64.800 69.753 C 64.800 70.058,64.440 70.401,64.000 70.516 C 63.560 70.631,63.200 71.012,63.200 71.363 C 63.200 71.713,63.029 72.000,62.821 72.000 C 62.270 72.000,60.400 73.812,60.400 74.346 C 60.400 74.596,59.848 74.800,59.174 74.800 C 57.127 74.800,56.400 75.428,56.400 77.196 C 56.400 78.663,56.312 78.780,55.037 79.019 C 53.877 79.237,53.637 79.477,53.419 80.637 C 53.268 81.446,52.927 82.000,52.582 82.000 C 52.262 82.000,52.000 82.249,52.000 82.553 C 52.000 82.858,51.640 83.201,51.200 83.316 C 50.760 83.431,50.400 83.812,50.400 84.163 C 50.400 84.513,50.130 84.800,49.800 84.800 C 49.470 84.800,49.200 85.049,49.200 85.353 C 49.200 85.658,48.840 86.001,48.400 86.116 C 47.960 86.231,47.600 86.612,47.600 86.963 C 47.600 87.325,47.268 87.600,46.829 87.600 C 45.599 87.600,44.800 88.715,44.800 90.429 C 44.800 91.559,44.632 92.000,44.200 92.000 C 43.870 92.000,43.600 92.270,43.600 92.600 C 43.600 93.017,43.181 93.200,42.231 93.200 C 40.887 93.200,40.855 93.240,40.529 95.300 C 40.227 97.208,40.094 97.412,39.075 97.529 C 38.458 97.600,37.838 97.960,37.699 98.329 C 37.559 98.698,37.210 99.238,36.922 99.529 C 36.635 99.819,36.400 100.392,36.400 100.802 C 36.400 101.211,36.040 101.660,35.600 101.800 C 35.160 101.940,34.800 102.297,34.800 102.595 C 34.800 102.892,34.500 103.735,34.133 104.468 C 33.765 105.200,33.344 106.070,33.196 106.400 C 33.047 106.730,32.448 107.235,31.863 107.522 C 31.278 107.809,30.800 108.193,30.800 108.375 C 30.800 108.558,30.440 108.801,30.000 108.916 C 29.332 109.091,29.200 109.462,29.200 111.163 C 29.200 112.908,29.090 113.200,28.429 113.200 C 27.050 113.200,26.400 114.299,26.400 116.629 C 26.400 118.533,26.302 118.800,25.600 118.800 C 25.067 118.800,24.800 119.067,24.800 119.600 C 24.800 120.044,24.533 120.400,24.200 120.400 C 23.785 120.400,23.600 120.817,23.600 121.753 C 23.600 122.770,23.401 123.159,22.800 123.316 C 22.217 123.468,22.000 123.862,22.000 124.763 C 22.000 125.596,21.804 126.000,21.400 126.000 C 21.070 126.000,20.800 126.258,20.800 126.573 C 20.800 126.888,20.440 127.260,20.000 127.400 C 19.560 127.540,19.200 127.983,19.200 128.384 C 19.200 128.786,18.930 129.218,18.600 129.345 C 18.158 129.514,18.000 130.212,18.000 131.987 C 18.000 134.057,17.896 134.400,17.270 134.400 C 16.069 134.400,14.800 136.086,14.800 137.683 C 14.800 138.586,14.579 139.199,14.200 139.345 C 13.760 139.513,13.600 140.206,13.600 141.937 C 13.600 144.219,13.561 144.308,12.451 144.530 C 11.068 144.806,10.607 145.750,11.446 146.588 C 11.994 147.137,11.993 147.200,11.429 147.200 C 10.941 147.200,10.800 147.648,10.800 149.200 C 10.800 150.667,10.587 151.413,10.000 152.000 C 9.560 152.440,9.200 153.160,9.200 153.600 C 9.200 154.044,8.933 154.400,8.600 154.400 C 8.156 154.400,8.000 154.866,8.000 156.197 C 8.000 157.560,7.807 158.114,7.200 158.493 C 6.500 158.930,6.400 159.426,6.400 162.453 C 6.400 165.058,6.261 165.968,5.838 166.130 C 5.528 166.249,5.154 166.898,5.006 167.573 C 4.858 168.248,4.481 168.800,4.168 168.800 C 3.714 168.800,3.600 169.631,3.600 172.953 C 3.600 176.770,3.535 177.124,2.800 177.316 C 2.078 177.505,2.000 177.862,2.000 180.963 C 2.000 183.751,1.887 184.400,1.400 184.400 C 0.947 184.400,0.800 184.889,0.800 186.400 C 0.800 187.500,0.620 188.400,0.400 188.400 C 0.137 188.400,0.000 198.667,0.000 218.400 C 0.000 238.133,0.137 248.400,0.400 248.400 C 0.626 248.400,0.800 249.538,0.800 251.013 C 0.800 252.966,0.951 253.683,1.400 253.855 C 1.848 254.027,2.000 254.743,2.000 256.680 C 2.000 258.938,2.104 259.302,2.800 259.484 C 3.544 259.679,3.600 260.030,3.600 264.484 C 3.600 268.938,3.656 269.290,4.400 269.484 C 4.840 269.599,5.200 269.923,5.200 270.204 C 5.200 270.485,5.470 270.818,5.800 270.945 C 6.262 271.122,6.401 271.893,6.405 274.287 C 6.412 277.927,6.682 279.200,7.447 279.200 C 7.826 279.200,8.000 279.704,8.000 280.800 C 8.000 281.956,8.167 282.400,8.600 282.400 C 9.019 282.400,9.200 282.822,9.200 283.800 C 9.200 284.933,9.352 285.200,10.000 285.200 C 10.734 285.200,10.800 285.467,10.800 288.416 C 10.800 291.731,11.725 294.000,13.075 294.000 C 13.430 294.000,13.600 294.578,13.600 295.780 C 13.600 296.852,13.815 297.687,14.141 297.880 C 14.439 298.056,14.785 298.991,14.911 299.958 C 15.154 301.829,15.653 302.384,17.100 302.394 C 17.857 302.399,18.000 302.618,18.000 303.767 C 18.000 304.518,18.225 305.224,18.500 305.335 C 18.900 305.496,18.900 305.543,18.500 305.568 C 16.831 305.674,19.362 309.600,21.099 309.600 C 21.943 309.600,22.000 309.768,22.000 312.237 C 22.000 314.538,22.102 314.902,22.800 315.084 C 23.240 315.199,23.600 315.542,23.600 315.847 C 23.600 316.151,23.870 316.400,24.200 316.400 C 24.530 316.400,24.800 316.687,24.800 317.037 C 24.800 317.388,25.160 317.769,25.600 317.884 C 26.201 318.041,26.400 318.430,26.400 319.447 C 26.400 320.335,26.591 320.800,26.955 320.800 C 27.274 320.800,27.623 321.398,27.774 322.200 C 27.931 323.038,28.270 323.600,28.618 323.600 C 29.051 323.600,29.200 324.121,29.200 325.637 C 29.200 327.338,29.332 327.709,30.000 327.884 C 30.440 327.999,30.800 328.342,30.800 328.647 C 30.800 328.951,31.070 329.200,31.400 329.200 C 31.730 329.200,32.000 329.487,32.000 329.837 C 32.000 330.188,32.360 330.569,32.800 330.684 C 33.451 330.854,33.600 331.230,33.600 332.701 C 33.600 334.456,34.872 336.400,36.021 336.400 C 36.229 336.400,36.400 336.676,36.400 337.013 C 36.400 337.349,36.670 337.729,37.000 337.855 C 37.330 337.982,37.600 338.412,37.600 338.810 C 37.600 339.962,38.039 340.800,38.643 340.800 C 38.997 340.800,39.200 341.243,39.200 342.013 C 39.200 342.698,39.450 343.321,39.776 343.446 C 40.092 343.567,40.466 344.192,40.607 344.833 C 40.748 345.475,41.034 346.000,41.242 346.000 C 41.450 346.000,41.791 346.450,42.000 347.000 C 42.209 347.550,42.655 348.000,42.990 348.000 C 43.326 348.000,43.600 348.270,43.600 348.600 C 43.600 348.930,43.870 349.200,44.200 349.200 C 44.654 349.200,44.800 349.690,44.800 351.213 C 44.800 352.657,44.974 353.292,45.417 353.462 C 46.309 353.804,46.373 353.644,46.653 350.331 L 46.907 347.328 44.853 343.852 C 43.724 341.940,42.792 340.246,42.783 340.088 C 42.774 339.929,41.970 338.540,40.997 337.000 C 40.024 335.460,38.714 333.300,38.085 332.200 C 35.815 328.227,35.302 327.375,34.260 325.844 C 33.677 324.988,33.200 324.111,33.200 323.895 C 33.200 323.679,32.416 322.399,31.459 321.051 C 30.501 319.703,29.502 317.939,29.238 317.132 C 28.975 316.325,28.482 315.434,28.144 315.153 C 27.805 314.872,26.641 312.923,25.557 310.821 C 24.472 308.720,23.146 306.280,22.610 305.400 C 22.073 304.520,21.424 303.170,21.167 302.400 C 20.909 301.630,20.461 300.726,20.171 300.392 C 19.880 300.058,19.084 298.438,18.401 296.792 C 17.718 295.146,16.552 292.540,15.810 291.000 C 15.068 289.460,14.156 286.850,13.784 285.200 C 13.412 283.550,12.879 281.750,12.601 281.200 C 12.322 280.650,11.604 278.400,11.006 276.200 C 10.407 274.000,9.465 270.580,8.912 268.600 C 7.679 264.183,6.002 256.273,5.995 254.850 C 5.993 254.272,5.635 252.360,5.200 250.600 C 1.862 237.088,1.574 204.217,4.656 188.600 C 6.106 181.253,6.414 179.611,7.051 175.800 C 7.419 173.600,8.220 170.360,8.832 168.600 C 9.443 166.840,10.049 164.635,10.177 163.700 C 10.433 161.828,10.992 160.031,13.035 154.517 C 13.786 152.492,14.400 150.553,14.400 150.209 C 14.400 149.865,15.105 148.102,15.966 146.292 C 16.827 144.481,17.837 142.010,18.209 140.800 C 18.581 139.590,19.318 137.925,19.848 137.100 C 20.378 136.275,21.176 134.624,21.623 133.430 C 22.070 132.237,22.872 130.617,23.405 129.830 C 23.939 129.044,24.995 127.059,25.753 125.419 C 26.511 123.779,27.567 121.844,28.101 121.119 C 28.635 120.393,29.662 118.630,30.383 117.200 C 31.105 115.770,31.986 114.268,32.343 113.863 C 32.699 113.458,33.443 112.351,33.995 111.404 C 35.719 108.449,42.229 99.306,43.566 97.963 C 43.915 97.612,44.920 96.383,45.800 95.231 C 46.680 94.080,48.660 91.702,50.200 89.949 C 51.740 88.195,53.413 86.184,53.918 85.480 C 57.810 80.051,77.366 62.902,87.400 56.119 C 88.940 55.078,90.805 53.713,91.544 53.086 C 92.284 52.459,93.283 51.796,93.765 51.613 C 94.247 51.430,96.042 50.452,97.754 49.440 C 99.466 48.428,101.017 47.600,101.202 47.600 C 101.387 47.600,102.047 47.174,102.669 46.654 C 103.930 45.598,107.712 43.600,108.449 43.600 C 108.710 43.600,109.481 43.176,110.162 42.657 C 111.674 41.505,115.377 39.600,116.105 39.600 C 116.397 39.600,118.211 38.790,120.135 37.800 C 122.059 36.810,123.877 36.000,124.177 36.000 C 124.476 36.000,126.223 35.316,128.060 34.480 C 129.897 33.644,132.570 32.636,134.000 32.242 C 135.430 31.847,137.590 31.169,138.800 30.735 C 143.497 29.051,147.098 27.987,149.400 27.604 C 150.720 27.385,152.880 26.758,154.200 26.212 C 155.520 25.666,157.374 25.215,158.321 25.209 C 159.865 25.201,161.845 24.858,167.600 23.602 C 176.230 21.718,184.077 21.135,201.800 21.060 L 216.200 21.000 216.321 19.557 C 216.496 17.458,214.540 17.373,178.100 17.900 M339.853 75.405 C 338.921 76.336,340.391 79.434,343.011 82.057 C 344.187 83.236,345.566 84.776,346.075 85.480 C 346.584 86.184,348.260 88.195,349.800 89.949 C 351.340 91.702,353.320 94.080,354.200 95.231 C 355.080 96.383,356.085 97.612,356.434 97.963 C 357.771 99.306,364.281 108.449,366.005 111.404 C 366.557 112.351,367.302 113.458,367.660 113.863 C 368.017 114.268,368.890 115.770,369.599 117.200 C 370.308 118.630,371.334 120.393,371.879 121.119 C 372.424 121.844,373.489 123.779,374.247 125.419 C 375.005 127.059,376.061 129.044,376.595 129.830 C 377.128 130.617,377.930 132.237,378.377 133.430 C 378.824 134.624,379.622 136.275,380.152 137.100 C 380.682 137.925,381.419 139.590,381.791 140.800 C 382.163 142.010,383.173 144.481,384.034 146.292 C 384.895 148.102,385.600 149.865,385.600 150.209 C 385.600 150.553,386.214 152.492,386.965 154.517 C 389.008 160.031,389.567 161.828,389.823 163.700 C 389.951 164.635,390.557 166.840,391.168 168.600 C 391.780 170.360,392.581 173.600,392.949 175.800 C 393.586 179.611,393.894 181.253,395.344 188.600 C 398.426 204.217,398.138 237.088,394.800 250.600 C 394.365 252.360,394.007 254.272,394.005 254.850 C 393.998 256.273,392.321 264.183,391.088 268.600 C 390.535 270.580,389.593 274.000,388.994 276.200 C 388.396 278.400,387.678 280.650,387.399 281.200 C 387.121 281.750,386.588 283.550,386.216 285.200 C 385.844 286.850,384.932 289.460,384.190 291.000 C 383.448 292.540,382.282 295.146,381.599 296.792 C 380.916 298.438,380.120 300.058,379.829 300.392 C 379.539 300.726,379.091 301.630,378.833 302.400 C 378.576 303.170,377.927 304.520,377.390 305.400 C 376.854 306.280,375.528 308.720,374.443 310.821 C 373.359 312.923,372.195 314.872,371.856 315.153 C 371.518 315.434,371.025 316.325,370.762 317.132 C 370.498 317.939,369.499 319.703,368.541 321.051 C 367.584 322.399,366.800 323.679,366.800 323.895 C 366.800 324.111,366.323 324.988,365.740 325.844 C 364.699 327.373,364.196 328.209,361.914 332.200 C 361.285 333.300,360.098 335.280,359.275 336.600 C 358.453 337.920,357.266 339.990,356.639 341.200 C 356.012 342.410,354.918 344.300,354.209 345.400 C 353.501 346.500,352.270 348.588,351.475 350.039 C 350.680 351.490,349.748 352.911,349.404 353.196 C 349.061 353.481,348.048 355.174,347.153 356.957 C 346.258 358.741,345.170 360.586,344.734 361.057 C 344.298 361.529,343.639 362.457,343.270 363.120 C 342.207 365.032,339.098 370.315,337.964 372.136 C 337.395 373.051,335.921 375.422,334.689 377.404 C 330.040 384.886,328.397 388.896,329.161 390.900 C 329.597 392.043,330.800 392.430,330.800 391.427 C 330.800 391.112,331.160 390.740,331.600 390.600 C 332.195 390.411,332.400 389.995,332.400 388.973 C 332.400 388.019,332.583 387.600,333.000 387.600 C 333.419 387.600,333.600 387.178,333.600 386.200 C 333.600 385.067,333.752 384.800,334.400 384.800 C 334.933 384.800,335.200 384.533,335.200 384.000 C 335.200 383.560,335.456 383.200,335.768 383.200 C 336.081 383.200,336.452 382.675,336.593 382.033 C 336.734 381.392,337.108 380.767,337.424 380.646 C 337.750 380.521,338.000 379.898,338.000 379.213 C 338.000 378.546,338.154 378.000,338.342 378.000 C 339.218 378.000,340.800 375.970,340.800 374.844 C 340.800 373.790,340.952 373.636,342.100 373.525 L 343.400 373.400 343.520 370.857 C 343.621 368.730,343.768 368.281,344.420 368.111 C 344.849 367.998,345.200 367.568,345.200 367.153 C 345.200 366.739,345.470 366.400,345.800 366.400 C 346.130 366.400,346.400 366.113,346.400 365.763 C 346.400 365.412,346.760 365.031,347.200 364.916 C 347.801 364.759,348.000 364.370,348.000 363.353 C 348.000 362.417,348.185 362.000,348.600 362.000 C 348.930 362.000,349.200 361.736,349.200 361.414 C 349.200 361.092,349.560 360.635,350.000 360.400 C 350.617 360.070,350.800 359.562,350.800 358.186 C 350.800 356.818,350.949 356.400,351.437 356.400 C 351.788 356.400,352.169 356.040,352.284 355.600 C 352.399 355.160,352.742 354.800,353.047 354.800 C 353.351 354.800,353.600 354.551,353.600 354.247 C 353.600 353.942,353.960 353.599,354.400 353.484 C 355.068 353.309,355.200 352.938,355.200 351.237 C 355.200 349.693,355.345 349.200,355.800 349.200 C 356.130 349.200,356.400 348.930,356.400 348.600 C 356.400 348.270,356.674 348.000,357.010 348.000 C 357.345 348.000,357.791 347.550,358.000 347.000 C 358.209 346.450,358.550 346.000,358.758 346.000 C 358.966 346.000,359.252 345.475,359.393 344.833 C 359.534 344.192,359.908 343.567,360.224 343.446 C 360.550 343.321,360.800 342.698,360.800 342.013 C 360.800 341.243,361.003 340.800,361.357 340.800 C 361.961 340.800,362.400 339.962,362.400 338.810 C 362.400 338.412,362.670 337.982,363.000 337.855 C 363.330 337.729,363.600 337.349,363.600 337.013 C 363.600 336.676,363.771 336.400,363.979 336.400 C 365.144 336.400,366.400 334.456,366.400 332.654 C 366.400 331.224,366.546 330.800,367.037 330.800 C 367.388 330.800,367.769 330.440,367.884 330.000 C 367.999 329.560,368.342 329.200,368.647 329.200 C 368.951 329.200,369.200 328.951,369.200 328.647 C 369.200 328.342,369.560 327.999,370.000 327.884 C 370.668 327.709,370.800 327.338,370.800 325.637 C 370.800 324.121,370.949 323.600,371.382 323.600 C 371.730 323.600,372.069 323.038,372.226 322.200 C 372.377 321.398,372.726 320.800,373.045 320.800 C 373.413 320.800,373.600 320.328,373.600 319.400 C 373.600 318.386,373.776 318.000,374.237 318.000 C 374.588 318.000,374.969 317.640,375.084 317.200 C 375.199 316.760,375.542 316.400,375.847 316.400 C 376.151 316.400,376.400 316.151,376.400 315.847 C 376.400 315.542,376.760 315.199,377.200 315.084 C 377.898 314.902,378.000 314.538,378.000 312.237 C 378.000 309.768,378.057 309.600,378.901 309.600 C 380.710 309.600,382.943 306.047,381.500 305.465 C 381.100 305.304,381.100 305.257,381.500 305.232 C 381.799 305.213,382.000 304.636,382.000 303.800 C 382.000 302.617,382.139 302.399,382.900 302.394 C 384.347 302.384,384.846 301.829,385.089 299.958 C 385.215 298.991,385.561 298.056,385.859 297.880 C 386.185 297.687,386.400 296.852,386.400 295.780 C 386.400 294.578,386.570 294.000,386.925 294.000 C 388.275 294.000,389.200 291.731,389.200 288.416 C 389.200 285.467,389.266 285.200,390.000 285.200 C 390.648 285.200,390.800 284.933,390.800 283.800 C 390.800 282.822,390.981 282.400,391.400 282.400 C 391.833 282.400,392.000 281.956,392.000 280.800 C 392.000 279.704,392.174 279.200,392.553 279.200 C 393.318 279.200,393.588 277.927,393.595 274.287 C 393.599 271.893,393.738 271.122,394.200 270.945 C 394.530 270.818,394.800 270.485,394.800 270.204 C 394.800 269.923,395.160 269.599,395.600 269.484 C 396.344 269.290,396.400 268.938,396.400 264.484 C 396.400 260.030,396.456 259.679,397.200 259.484 C 397.896 259.302,398.000 258.938,398.000 256.680 C 398.000 254.743,398.152 254.027,398.600 253.855 C 399.049 253.683,399.200 252.966,399.200 251.013 C 399.200 249.538,399.374 248.400,399.600 248.400 C 399.863 248.400,400.000 238.133,400.000 218.400 C 400.000 198.667,399.863 188.400,399.600 188.400 C 399.380 188.400,399.200 187.500,399.200 186.400 C 399.200 184.889,399.053 184.400,398.600 184.400 C 398.113 184.400,398.000 183.751,398.000 180.963 C 398.000 177.862,397.922 177.505,397.200 177.316 C 396.465 177.124,396.400 176.770,396.400 172.953 C 396.400 169.631,396.286 168.800,395.832 168.800 C 395.519 168.800,395.142 168.248,394.994 167.573 C 394.846 166.898,394.472 166.249,394.162 166.130 C 393.739 165.968,393.600 165.058,393.600 162.453 C 393.600 159.426,393.500 158.930,392.800 158.493 C 392.193 158.114,392.000 157.560,392.000 156.197 C 392.000 154.866,391.844 154.400,391.400 154.400 C 391.067 154.400,390.800 154.044,390.800 153.600 C 390.800 153.160,390.440 152.440,390.000 152.000 C 389.413 151.413,389.200 150.667,389.200 149.200 C 389.200 147.648,389.059 147.200,388.571 147.200 C 388.007 147.200,388.006 147.137,388.554 146.588 C 389.393 145.750,388.932 144.806,387.549 144.530 C 386.439 144.308,386.400 144.219,386.400 141.937 C 386.400 140.206,386.240 139.513,385.800 139.345 C 385.416 139.197,385.200 138.580,385.200 137.627 C 385.200 136.025,383.928 134.400,382.674 134.400 C 382.116 134.400,382.000 133.983,382.000 131.987 C 382.000 130.212,381.842 129.514,381.400 129.345 C 381.070 129.218,380.800 128.786,380.800 128.384 C 380.800 127.983,380.440 127.540,380.000 127.400 C 379.560 127.260,379.200 126.888,379.200 126.573 C 379.200 126.258,378.930 126.000,378.600 126.000 C 378.196 126.000,378.000 125.596,378.000 124.763 C 378.000 123.862,377.783 123.468,377.200 123.316 C 376.599 123.159,376.400 122.770,376.400 121.753 C 376.400 120.817,376.215 120.400,375.800 120.400 C 375.467 120.400,375.200 120.044,375.200 119.600 C 375.200 119.067,374.933 118.800,374.400 118.800 C 373.698 118.800,373.600 118.533,373.600 116.629 C 373.600 114.299,372.950 113.200,371.571 113.200 C 370.910 113.200,370.800 112.908,370.800 111.163 C 370.800 109.462,370.668 109.091,370.000 108.916 C 369.560 108.801,369.200 108.558,369.200 108.375 C 369.200 108.193,368.722 107.809,368.137 107.522 C 367.552 107.235,366.953 106.730,366.804 106.400 C 366.656 106.070,366.235 105.200,365.867 104.468 C 365.500 103.735,365.200 102.892,365.200 102.595 C 365.200 102.297,364.840 101.940,364.400 101.800 C 363.960 101.660,363.600 101.211,363.600 100.802 C 363.600 100.392,363.365 99.819,363.078 99.529 C 362.790 99.238,362.441 98.698,362.301 98.329 C 362.162 97.960,361.543 97.600,360.927 97.529 C 360.302 97.457,359.773 97.135,359.730 96.800 C 359.282 93.300,359.228 93.200,357.782 93.200 C 356.820 93.200,356.400 93.018,356.400 92.600 C 356.400 92.270,356.130 92.000,355.800 92.000 C 355.368 92.000,355.200 91.559,355.200 90.429 C 355.200 88.738,354.403 87.600,353.218 87.600 C 352.819 87.600,352.399 87.240,352.284 86.800 C 352.169 86.360,351.788 86.000,351.437 86.000 C 351.087 86.000,350.800 85.730,350.800 85.400 C 350.800 85.070,350.530 84.800,350.200 84.800 C 349.870 84.800,349.600 84.513,349.600 84.163 C 349.600 83.812,349.240 83.431,348.800 83.316 C 348.360 83.201,348.000 82.858,348.000 82.553 C 348.000 82.249,347.738 82.000,347.418 82.000 C 347.073 82.000,346.732 81.446,346.581 80.637 C 346.363 79.477,346.123 79.237,344.963 79.019 C 343.688 78.780,343.600 78.663,343.600 77.196 C 343.600 74.999,341.339 73.918,339.853 75.405 M192.400 131.259 C 189.870 131.450,186.360 131.953,184.600 132.378 C 182.840 132.803,180.320 133.357,179.000 133.608 C 175.472 134.278,173.356 134.960,169.992 136.510 C 168.337 137.272,166.401 138.024,165.688 138.181 C 164.106 138.528,162.320 139.382,160.200 140.805 C 159.320 141.396,158.128 141.994,157.551 142.134 C 156.974 142.275,155.419 143.187,154.094 144.162 C 152.770 145.137,151.161 146.206,150.519 146.538 C 149.104 147.270,143.409 151.860,141.942 153.452 C 140.618 154.889,140.974 156.661,142.504 156.251 C 142.997 156.119,143.912 156.008,144.537 156.005 C 145.336 156.002,145.737 155.761,145.884 155.200 C 145.999 154.760,146.342 154.400,146.647 154.400 C 146.951 154.400,147.200 154.040,147.200 153.600 C 147.200 153.067,147.467 152.800,148.000 152.800 C 148.444 152.800,148.800 152.533,148.800 152.200 C 148.800 151.870,149.070 151.600,149.400 151.600 C 149.733 151.600,150.000 151.244,150.000 150.800 C 150.000 150.152,150.267 150.000,151.400 150.000 C 152.378 150.000,152.800 149.819,152.800 149.400 C 152.800 148.983,153.219 148.800,154.173 148.800 C 155.195 148.800,155.611 148.595,155.800 148.000 C 155.940 147.560,156.312 147.200,156.627 147.200 C 156.942 147.200,157.200 146.930,157.200 146.600 C 157.200 146.145,157.693 146.000,159.237 146.000 C 160.938 146.000,161.309 145.868,161.484 145.200 C 161.599 144.760,161.942 144.400,162.247 144.400 C 162.551 144.400,162.800 144.142,162.800 143.827 C 162.800 143.512,163.160 143.140,163.600 143.000 C 164.040 142.860,164.400 142.488,164.400 142.173 C 164.400 141.720,165.120 141.600,167.837 141.600 C 170.938 141.600,171.295 141.522,171.484 140.800 C 171.599 140.360,171.942 140.000,172.247 140.000 C 172.551 140.000,172.800 139.730,172.800 139.400 C 172.800 138.981,173.222 138.800,174.200 138.800 C 175.067 138.800,175.905 138.495,176.400 138.000 C 177.107 137.293,177.733 137.200,181.813 137.200 C 185.544 137.200,186.469 137.085,186.655 136.600 C 186.821 136.168,187.498 136.000,189.080 136.000 C 190.938 136.000,191.307 135.877,191.484 135.200 C 191.685 134.432,192.030 134.400,200.000 134.400 C 207.970 134.400,208.315 134.432,208.516 135.200 C 208.693 135.877,209.062 136.000,210.920 136.000 C 212.502 136.000,213.179 136.168,213.345 136.600 C 213.716 137.568,221.576 137.473,221.661 136.500 C 221.728 135.724,221.721 134.340,221.648 133.945 C 221.621 133.804,220.925 133.571,220.100 133.426 C 219.275 133.282,217.160 132.817,215.400 132.394 C 209.750 131.037,201.055 130.607,192.400 131.259 M230.116 296.000 C 230.001 296.440,229.602 296.800,229.230 296.800 C 228.858 296.800,228.204 297.064,227.776 297.387 C 227.253 297.783,225.990 297.979,223.900 297.987 L 220.800 298.000 220.800 299.767 C 220.800 303.076,221.224 303.290,225.574 302.175 C 232.071 300.511,234.088 298.779,232.957 295.833 C 232.587 294.867,230.378 294.997,230.116 296.000 M258.227 499.711 C 257.466 500.860,256.029 502.970,255.033 504.400 C 254.037 505.830,253.217 507.151,253.211 507.335 C 253.205 507.519,252.689 508.419,252.065 509.335 C 250.936 510.989,249.606 513.067,248.157 515.439 C 247.741 516.120,246.500 518.025,245.400 519.672 C 244.300 521.318,242.950 523.426,242.400 524.356 C 241.850 525.286,241.010 526.621,240.533 527.323 C 240.057 528.026,238.902 529.860,237.967 531.400 C 237.032 532.940,235.757 534.826,235.133 535.591 C 234.510 536.356,234.000 537.182,234.000 537.426 C 234.000 537.882,229.755 544.535,227.610 547.439 C 226.945 548.341,226.400 549.177,226.400 549.297 C 226.400 549.417,225.410 550.977,224.200 552.765 C 222.990 554.552,222.000 556.150,222.000 556.316 C 222.000 556.482,221.485 557.244,220.857 558.009 C 220.228 558.774,219.343 560.120,218.890 561.000 C 218.437 561.880,217.376 563.534,216.533 564.675 C 215.690 565.816,214.506 567.616,213.902 568.675 C 213.299 569.734,211.813 572.130,210.602 574.000 C 209.390 575.870,208.084 577.915,207.699 578.544 C 207.315 579.173,206.602 580.253,206.116 580.944 C 205.630 581.635,204.481 583.518,203.564 585.130 C 201.788 588.247,200.695 589.044,199.053 588.420 C 198.475 588.201,197.453 586.915,196.436 585.130 C 195.519 583.518,194.370 581.635,193.884 580.944 C 193.398 580.253,192.685 579.173,192.301 578.544 C 191.916 577.915,190.610 575.870,189.398 574.000 C 188.187 572.130,186.701 569.734,186.098 568.675 C 185.494 567.616,184.310 565.816,183.467 564.675 C 182.624 563.534,181.563 561.880,181.110 561.000 C 180.657 560.120,179.772 558.774,179.143 558.009 C 178.515 557.244,178.000 556.492,178.000 556.338 C 178.000 556.184,177.055 554.651,175.900 552.929 C 174.745 551.208,173.710 549.612,173.600 549.382 C 173.490 549.151,172.901 548.251,172.291 547.382 C 169.795 543.820,166.000 537.843,166.000 537.472 C 166.000 537.254,165.505 536.437,164.900 535.657 C 163.931 534.408,161.330 530.421,159.291 527.060 C 156.320 522.161,153.345 517.589,152.393 516.456 L 151.600 515.511 150.813 516.456 C 150.381 516.975,150.021 517.783,150.013 518.250 C 149.987 519.915,150.509 521.600,151.050 521.600 C 151.353 521.600,151.600 521.870,151.600 522.200 C 151.600 522.533,151.956 522.800,152.400 522.800 C 152.933 522.800,153.200 523.067,153.200 523.600 C 153.200 524.044,153.467 524.400,153.800 524.400 C 154.252 524.400,154.400 524.886,154.400 526.373 C 154.400 527.897,154.559 528.399,155.100 528.578 C 155.485 528.706,156.070 529.393,156.400 530.105 C 156.770 530.905,157.344 531.449,157.900 531.528 C 158.682 531.639,158.800 531.893,158.800 533.465 C 158.800 534.938,158.949 535.314,159.600 535.484 C 160.040 535.599,160.400 535.933,160.400 536.227 C 160.400 536.520,160.629 536.904,160.908 537.080 C 161.188 537.256,161.634 537.895,161.900 538.500 C 162.165 539.105,162.567 539.600,162.791 539.600 C 163.016 539.600,163.200 539.966,163.200 540.413 C 163.200 540.859,163.470 541.329,163.800 541.455 C 164.130 541.582,164.400 542.110,164.400 542.629 C 164.400 543.162,164.747 543.758,165.200 544.000 C 165.640 544.235,166.000 544.769,166.000 545.186 C 166.000 545.602,166.270 546.213,166.600 546.543 C 166.930 546.873,167.200 547.426,167.200 547.771 C 167.200 548.133,167.539 548.400,168.000 548.400 C 168.533 548.400,168.800 548.667,168.800 549.200 C 168.800 549.640,169.050 550.000,169.355 550.000 C 169.674 550.000,170.023 550.598,170.174 551.400 C 170.331 552.238,170.670 552.800,171.018 552.800 C 171.338 552.800,171.600 553.160,171.600 553.600 C 171.600 554.040,171.851 554.400,172.157 554.400 C 172.464 554.400,172.818 554.670,172.945 555.000 C 173.071 555.330,173.451 555.600,173.787 555.600 C 174.263 555.600,174.400 556.091,174.400 557.800 L 174.400 560.000 175.800 560.000 C 177.098 560.000,177.200 560.090,177.200 561.237 C 177.200 562.138,177.417 562.532,178.000 562.684 C 178.601 562.841,178.800 563.230,178.800 564.247 C 178.800 565.132,178.991 565.600,179.353 565.600 C 179.658 565.600,180.001 565.960,180.116 566.400 C 180.231 566.840,180.603 567.200,180.943 567.200 C 181.423 567.200,181.589 567.763,181.681 569.700 C 181.797 572.138,181.832 572.209,183.100 572.583 C 183.815 572.793,184.400 573.198,184.400 573.483 C 184.400 573.767,184.670 574.000,185.000 574.000 C 185.373 574.000,185.600 574.378,185.600 575.000 C 185.600 575.550,185.960 576.360,186.400 576.800 C 186.840 577.240,187.200 577.780,187.200 578.000 C 187.200 578.220,187.560 578.400,188.000 578.400 C 188.624 578.400,188.800 578.667,188.800 579.613 C 188.800 580.321,189.049 580.921,189.400 581.055 C 189.748 581.189,190.000 581.787,190.000 582.480 C 190.000 583.338,190.225 583.734,190.800 583.884 C 191.243 584.000,191.600 584.430,191.600 584.847 C 191.600 585.261,191.870 585.600,192.200 585.600 C 192.530 585.600,192.800 585.836,192.800 586.125 C 192.800 586.413,193.160 587.036,193.600 587.508 C 194.088 588.031,194.400 588.919,194.400 589.783 C 194.400 590.933,194.551 591.200,195.200 591.200 C 195.640 591.200,196.000 591.380,196.000 591.600 C 196.000 591.840,197.600 592.000,200.000 592.000 C 202.400 592.000,204.000 591.840,204.000 591.600 C 204.000 591.380,204.360 591.200,204.800 591.200 C 205.449 591.200,205.600 590.933,205.600 589.783 C 205.600 588.919,205.912 588.031,206.400 587.508 C 206.840 587.036,207.200 586.413,207.200 586.125 C 207.200 585.836,207.470 585.600,207.800 585.600 C 208.130 585.600,208.400 585.261,208.400 584.847 C 208.400 584.430,208.757 584.000,209.200 583.884 C 209.775 583.734,210.000 583.338,210.000 582.480 C 210.000 581.787,210.252 581.189,210.600 581.055 C 210.951 580.921,211.200 580.321,211.200 579.613 C 211.200 578.667,211.376 578.400,212.000 578.400 C 212.440 578.400,212.800 578.220,212.800 578.000 C 212.800 577.780,213.160 577.240,213.600 576.800 C 214.040 576.360,214.400 575.550,214.400 575.000 C 214.400 574.378,214.627 574.000,215.000 574.000 C 215.330 574.000,215.600 573.767,215.600 573.483 C 215.600 573.198,216.185 572.793,216.900 572.583 C 218.168 572.209,218.203 572.138,218.319 569.700 C 218.411 567.763,218.577 567.200,219.057 567.200 C 219.397 567.200,219.769 566.840,219.884 566.400 C 219.999 565.960,220.342 565.600,220.647 565.600 C 221.009 565.600,221.200 565.132,221.200 564.247 C 221.200 563.230,221.399 562.841,222.000 562.684 C 222.583 562.532,222.800 562.138,222.800 561.237 C 222.800 560.090,222.902 560.000,224.200 560.000 L 225.600 560.000 225.600 557.800 C 225.600 556.091,225.737 555.600,226.213 555.600 C 226.549 555.600,226.929 555.330,227.055 555.000 C 227.182 554.670,227.536 554.400,227.843 554.400 C 228.149 554.400,228.400 554.040,228.400 553.600 C 228.400 553.160,228.662 552.800,228.982 552.800 C 229.330 552.800,229.669 552.238,229.826 551.400 C 229.977 550.598,230.326 550.000,230.645 550.000 C 230.950 550.000,231.200 549.640,231.200 549.200 C 231.200 548.667,231.467 548.400,232.000 548.400 C 232.461 548.400,232.800 548.133,232.800 547.771 C 232.800 547.426,233.070 546.873,233.400 546.543 C 233.730 546.213,234.000 545.602,234.000 545.186 C 234.000 544.769,234.360 544.235,234.800 544.000 C 235.253 543.758,235.600 543.162,235.600 542.629 C 235.600 542.110,235.870 541.582,236.200 541.455 C 236.530 541.329,236.800 540.859,236.800 540.413 C 236.800 539.966,236.984 539.600,237.209 539.600 C 237.433 539.600,237.835 539.105,238.100 538.500 C 238.366 537.895,238.812 537.256,239.092 537.080 C 239.371 536.904,239.600 536.520,239.600 536.227 C 239.600 535.933,239.960 535.599,240.400 535.484 C 241.051 535.314,241.200 534.938,241.200 533.465 C 241.200 531.893,241.318 531.639,242.100 531.528 C 242.656 531.449,243.230 530.905,243.600 530.105 C 243.930 529.393,244.515 528.706,244.900 528.578 C 245.441 528.399,245.600 527.897,245.600 526.373 C 245.600 524.886,245.748 524.400,246.200 524.400 C 246.533 524.400,246.800 524.044,246.800 523.600 C 246.800 523.067,247.067 522.800,247.600 522.800 C 248.044 522.800,248.400 522.533,248.400 522.200 C 248.400 521.870,248.650 521.600,248.955 521.600 C 249.274 521.600,249.623 521.002,249.774 520.200 C 249.923 519.402,250.274 518.800,250.589 518.800 C 251.451 518.800,252.800 516.815,252.800 515.546 C 252.800 514.794,253.006 514.400,253.400 514.400 C 253.730 514.400,254.000 514.061,254.000 513.647 C 254.000 513.230,254.357 512.800,254.800 512.684 C 255.383 512.532,255.600 512.138,255.600 511.237 C 255.600 510.404,255.796 510.000,256.200 510.000 C 256.619 510.000,256.800 509.578,256.800 508.600 C 256.800 507.467,256.952 507.200,257.600 507.200 C 258.044 507.200,258.400 506.933,258.400 506.600 C 258.400 506.270,258.670 506.000,259.000 506.000 C 259.417 506.000,259.600 505.581,259.600 504.627 C 259.600 503.605,259.805 503.189,260.400 503.000 C 260.840 502.860,261.200 502.488,261.200 502.173 C 261.200 501.858,261.470 501.600,261.800 501.600 C 263.034 501.600,261.984 498.704,260.505 498.030 C 259.700 497.663,259.471 497.832,258.227 499.711 " stroke="none" fill="#fa7d07" fill-rule="evenodd"></path><path id="path1" d="M235.600 0.400 C 235.600 0.620,234.694 0.800,233.587 0.800 C 232.168 0.800,231.507 0.977,231.345 1.400 C 231.211 1.748,230.613 2.000,229.920 2.000 C 229.062 2.000,228.666 2.225,228.516 2.800 C 228.359 3.401,227.970 3.600,226.953 3.600 C 226.036 3.600,225.600 3.787,225.600 4.182 C 225.600 4.530,225.038 4.869,224.200 5.026 C 223.398 5.177,222.800 5.526,222.800 5.845 C 222.800 6.150,222.530 6.400,222.200 6.400 C 221.870 6.400,221.600 6.664,221.600 6.986 C 221.600 7.308,221.240 7.765,220.800 8.000 C 220.287 8.274,220.000 8.838,220.000 9.567 C 220.000 10.370,219.764 10.768,219.200 10.916 C 218.617 11.068,218.400 11.462,218.400 12.363 C 218.400 13.196,218.204 13.600,217.800 13.600 C 217.385 13.600,217.200 14.017,217.200 14.953 C 217.200 15.970,217.001 16.359,216.400 16.516 C 215.581 16.730,215.259 18.000,216.024 18.000 C 216.270 18.000,216.396 18.632,216.324 19.500 L 216.200 21.000 201.800 21.060 C 184.077 21.135,176.230 21.718,167.600 23.602 C 161.845 24.858,159.865 25.201,158.321 25.209 C 157.374 25.215,155.520 25.666,154.200 26.212 C 152.880 26.758,150.720 27.385,149.400 27.604 C 147.098 27.987,143.497 29.051,138.800 30.735 C 137.590 31.169,135.430 31.847,134.000 32.242 C 132.570 32.636,129.897 33.644,128.060 34.480 C 126.223 35.316,124.476 36.000,124.177 36.000 C 123.877 36.000,122.059 36.810,120.135 37.800 C 118.211 38.790,116.397 39.600,116.105 39.600 C 115.377 39.600,111.674 41.505,110.162 42.657 C 109.481 43.176,108.710 43.600,108.449 43.600 C 107.712 43.600,103.930 45.598,102.669 46.654 C 102.047 47.174,101.387 47.600,101.202 47.600 C 101.017 47.600,99.466 48.428,97.754 49.440 C 96.042 50.452,94.247 51.430,93.765 51.613 C 93.283 51.796,92.284 52.459,91.544 53.086 C 90.805 53.713,88.940 55.078,87.400 56.119 C 77.366 62.902,57.810 80.051,53.918 85.480 C 53.413 86.184,51.740 88.195,50.200 89.949 C 48.660 91.702,46.680 94.080,45.800 95.231 C 44.920 96.383,43.915 97.612,43.566 97.963 C 42.229 99.306,35.719 108.449,33.995 111.404 C 33.443 112.351,32.699 113.458,32.343 113.863 C 31.986 114.268,31.105 115.770,30.383 117.200 C 29.662 118.630,28.635 120.393,28.101 121.119 C 27.567 121.844,26.511 123.779,25.753 125.419 C 24.995 127.059,23.939 129.044,23.405 129.830 C 22.872 130.617,22.070 132.237,21.623 133.430 C 21.176 134.624,20.378 136.275,19.848 137.100 C 19.318 137.925,18.581 139.590,18.209 140.800 C 17.837 142.010,16.827 144.481,15.966 146.292 C 15.105 148.102,14.400 149.865,14.400 150.209 C 14.400 150.553,13.786 152.492,13.035 154.517 C 10.992 160.031,10.433 161.828,10.177 163.700 C 10.049 164.635,9.443 166.840,8.832 168.600 C 8.220 170.360,7.419 173.600,7.051 175.800 C 6.414 179.611,6.106 181.253,4.656 188.600 C 1.574 204.217,1.862 237.088,5.200 250.600 C 5.635 252.360,5.993 254.272,5.995 254.850 C 6.002 256.273,7.679 264.183,8.912 268.600 C 9.465 270.580,10.407 274.000,11.006 276.200 C 11.604 278.400,12.322 280.650,12.601 281.200 C 12.879 281.750,13.412 283.550,13.784 285.200 C 14.156 286.850,15.068 289.460,15.810 291.000 C 16.552 292.540,17.718 295.146,18.401 296.792 C 19.084 298.438,19.880 300.058,20.171 300.392 C 20.461 300.726,20.909 301.630,21.167 302.400 C 21.424 303.170,22.073 304.520,22.610 305.400 C 23.146 306.280,24.472 308.720,25.557 310.821 C 26.641 312.923,27.805 314.872,28.144 315.153 C 28.482 315.434,28.975 316.325,29.238 317.132 C 29.502 317.939,30.501 319.703,31.459 321.051 C 32.416 322.399,33.200 323.679,33.200 323.895 C 33.200 324.111,33.677 324.988,34.260 325.844 C 35.302 327.375,35.815 328.227,38.085 332.200 C 38.714 333.300,40.024 335.460,40.997 337.000 C 41.970 338.540,42.774 339.929,42.783 340.088 C 42.792 340.246,43.678 341.866,44.751 343.688 L 46.701 347.000 46.494 356.491 C 46.308 365.040,46.352 366.007,46.944 366.234 C 47.522 366.456,47.600 367.435,47.600 374.447 C 47.600 381.913,47.650 382.450,48.400 383.093 C 49.147 383.732,49.200 384.273,49.200 391.246 C 49.200 397.516,49.296 398.751,49.800 398.945 C 50.297 399.135,50.401 400.227,50.405 405.287 C 50.411 411.870,50.586 413.200,51.447 413.200 C 51.891 413.200,52.000 414.292,52.000 418.757 C 52.000 423.037,52.123 424.362,52.537 424.520 C 52.923 424.669,53.145 426.051,53.326 429.441 C 53.520 433.062,53.721 434.236,54.190 434.498 C 54.661 434.762,54.800 435.603,54.800 438.193 C 54.800 441.195,54.884 441.573,55.600 441.800 C 56.317 442.027,56.400 442.405,56.400 445.427 C 56.400 448.159,56.514 448.800,57.000 448.800 C 57.487 448.800,57.600 449.449,57.600 452.237 C 57.600 455.338,57.678 455.695,58.400 455.884 C 59.120 456.072,59.200 456.430,59.200 459.459 C 59.200 462.082,59.332 462.876,59.800 463.055 C 60.213 463.214,60.402 463.865,60.405 465.143 C 60.413 467.571,60.762 468.800,61.447 468.800 C 61.868 468.800,62.000 469.508,62.000 471.771 C 62.000 473.879,62.174 474.917,62.600 475.343 C 62.958 475.701,63.200 476.679,63.200 477.768 C 63.200 479.160,63.390 479.712,64.000 480.093 C 64.656 480.503,64.800 481.026,64.800 483.007 C 64.800 484.927,64.964 485.563,65.600 486.107 C 66.235 486.651,66.400 487.287,66.400 489.196 C 66.400 491.066,66.533 491.600,67.000 491.600 C 67.460 491.600,67.600 492.107,67.600 493.767 C 67.600 496.302,67.873 497.200,68.643 497.200 C 69.052 497.200,69.200 497.786,69.200 499.400 C 69.200 501.004,69.350 501.600,69.752 501.600 C 70.142 501.600,70.356 502.318,70.481 504.044 C 70.607 505.785,70.851 506.597,71.329 506.864 C 71.748 507.099,72.000 507.741,72.000 508.577 C 72.000 509.397,72.232 510.004,72.600 510.145 C 72.949 510.278,73.200 510.877,73.200 511.573 C 73.200 512.362,73.473 512.918,74.000 513.200 C 74.617 513.530,74.800 514.038,74.800 515.414 C 74.800 516.735,74.956 517.200,75.400 517.200 C 75.804 517.200,76.000 517.604,76.000 518.437 C 76.000 519.338,76.217 519.732,76.800 519.884 C 77.401 520.041,77.600 520.430,77.600 521.447 C 77.600 522.533,77.758 522.800,78.400 522.800 C 79.049 522.800,79.200 523.067,79.200 524.213 C 79.200 525.099,79.423 525.711,79.800 525.855 C 80.148 525.989,80.400 526.587,80.400 527.280 C 80.400 528.138,80.625 528.534,81.200 528.684 C 81.721 528.820,82.000 529.230,82.000 529.859 C 82.000 530.390,82.270 530.929,82.600 531.055 C 82.930 531.182,83.200 531.626,83.200 532.043 C 83.200 532.533,83.482 532.800,84.000 532.800 C 84.533 532.800,84.800 533.067,84.800 533.600 C 84.800 534.044,85.067 534.400,85.400 534.400 C 85.730 534.400,86.000 534.670,86.000 535.000 C 86.000 535.333,86.356 535.600,86.800 535.600 C 87.333 535.600,87.600 535.867,87.600 536.400 C 87.600 536.840,87.849 537.200,88.153 537.200 C 88.458 537.200,88.801 537.560,88.916 538.000 C 89.031 538.440,89.412 538.800,89.763 538.800 C 90.113 538.800,90.400 539.070,90.400 539.400 C 90.400 539.733,90.756 540.000,91.200 540.000 C 91.640 540.000,92.000 540.204,92.000 540.454 C 92.000 541.228,93.992 542.800,94.974 542.800 C 95.570 542.800,95.982 543.089,96.116 543.600 C 96.266 544.175,96.662 544.400,97.520 544.400 C 98.213 544.400,98.811 544.652,98.945 545.000 C 99.089 545.377,99.701 545.600,100.587 545.600 C 101.733 545.600,102.000 545.751,102.000 546.400 C 102.000 547.093,102.267 547.200,104.000 547.200 C 105.511 547.200,106.000 547.347,106.000 547.800 C 106.000 548.701,122.999 548.701,123.345 547.800 C 123.502 547.389,124.145 547.200,125.387 547.200 C 126.933 547.200,127.200 547.082,127.200 546.400 C 127.200 545.751,127.467 545.600,128.613 545.600 C 129.499 545.600,130.111 545.377,130.255 545.000 C 130.389 544.652,130.987 544.400,131.680 544.400 C 132.538 544.400,132.934 544.175,133.084 543.600 C 133.241 542.999,133.630 542.800,134.647 542.800 C 135.583 542.800,136.000 542.615,136.000 542.200 C 136.000 541.867,136.356 541.600,136.800 541.600 C 137.240 541.600,137.960 541.240,138.400 540.800 C 138.840 540.360,139.359 540.000,139.553 540.000 C 139.748 540.000,140.001 539.640,140.116 539.200 C 140.231 538.760,140.612 538.400,140.963 538.400 C 141.313 538.400,141.600 538.130,141.600 537.800 C 141.600 537.470,141.870 537.200,142.200 537.200 C 142.530 537.200,142.800 537.003,142.800 536.763 C 142.800 536.523,143.160 535.869,143.600 535.309 C 144.040 534.750,144.400 533.996,144.400 533.635 C 144.400 533.274,144.760 532.670,145.200 532.293 C 145.640 531.916,146.000 531.233,146.000 530.775 C 146.000 530.317,146.270 529.673,146.600 529.343 C 146.983 528.960,147.200 527.973,147.200 526.618 C 147.200 524.830,147.327 524.460,148.000 524.284 C 148.583 524.132,148.800 523.738,148.800 522.837 C 148.800 522.004,148.996 521.600,149.400 521.600 C 149.855 521.600,150.003 521.094,150.013 519.500 C 150.023 518.013,150.256 517.124,150.813 516.456 L 151.600 515.511 152.393 516.456 C 153.345 517.589,156.320 522.161,159.291 527.060 C 161.330 530.421,163.931 534.408,164.900 535.657 C 165.505 536.437,166.000 537.254,166.000 537.472 C 166.000 537.843,169.795 543.820,172.291 547.382 C 172.901 548.251,173.490 549.151,173.600 549.382 C 173.710 549.612,174.745 551.208,175.900 552.929 C 177.055 554.651,178.000 556.184,178.000 556.338 C 178.000 556.492,178.515 557.244,179.143 558.009 C 179.772 558.774,180.657 560.120,181.110 561.000 C 181.563 561.880,182.624 563.534,183.467 564.675 C 184.310 565.816,185.494 567.616,186.098 568.675 C 186.701 569.734,188.187 572.130,189.398 574.000 C 190.610 575.870,191.916 577.915,192.301 578.544 C 192.685 579.173,193.398 580.253,193.884 580.944 C 194.370 581.635,195.519 583.518,196.436 585.130 C 197.453 586.915,198.475 588.201,199.053 588.420 C 200.695 589.044,201.788 588.247,203.564 585.130 C 204.481 583.518,205.630 581.635,206.116 580.944 C 206.602 580.253,207.315 579.173,207.699 578.544 C 208.084 577.915,209.390 575.870,210.602 574.000 C 211.813 572.130,213.299 569.734,213.902 568.675 C 214.506 567.616,215.690 565.816,216.533 564.675 C 217.376 563.534,218.437 561.880,218.890 561.000 C 219.343 560.120,220.228 558.774,220.857 558.009 C 221.485 557.244,222.000 556.482,222.000 556.316 C 222.000 556.150,222.990 554.552,224.200 552.765 C 225.410 550.977,226.400 549.417,226.400 549.297 C 226.400 549.177,226.945 548.341,227.610 547.439 C 229.755 544.535,234.000 537.882,234.000 537.426 C 234.000 537.182,234.510 536.356,235.133 535.591 C 235.757 534.826,237.032 532.940,237.967 531.400 C 238.902 529.860,240.057 528.026,240.533 527.323 C 241.010 526.621,241.850 525.286,242.400 524.356 C 242.950 523.426,244.300 521.318,245.400 519.672 C 246.500 518.025,247.741 516.120,248.157 515.439 C 249.606 513.067,250.936 510.989,252.065 509.335 C 252.689 508.419,253.205 507.519,253.211 507.335 C 253.217 507.151,254.037 505.830,255.033 504.400 C 256.029 502.970,257.466 500.860,258.227 499.711 C 259.949 497.111,262.400 497.915,262.400 501.080 C 262.400 501.366,262.760 501.600,263.200 501.600 C 263.640 501.600,264.000 501.862,264.000 502.182 C 264.000 502.528,264.556 502.868,265.372 503.021 C 266.127 503.163,266.841 503.531,266.960 503.839 C 267.078 504.148,267.708 504.400,268.360 504.400 C 269.195 504.400,269.621 504.637,269.800 505.200 C 269.989 505.795,270.405 506.000,271.427 506.000 C 272.381 506.000,272.800 506.183,272.800 506.600 C 272.800 507.052,273.286 507.200,274.773 507.200 C 276.395 507.200,276.791 507.342,277.000 508.000 C 277.243 508.766,277.605 508.800,285.578 508.800 C 292.489 508.800,293.987 508.902,294.400 509.400 C 294.810 509.894,296.203 510.000,302.249 510.000 C 308.517 510.000,309.600 509.912,309.600 509.400 C 309.600 508.996,310.004 508.800,310.837 508.800 C 311.738 508.800,312.132 508.583,312.284 508.000 C 312.441 507.399,312.830 507.200,313.847 507.200 C 314.668 507.200,315.200 507.002,315.200 506.696 C 315.200 506.419,315.560 505.968,316.000 505.693 C 316.510 505.374,316.800 504.760,316.800 503.997 C 316.800 503.200,317.000 502.800,317.400 502.800 C 317.815 502.800,318.000 502.383,318.000 501.447 C 318.000 500.430,318.199 500.041,318.800 499.884 C 319.498 499.702,319.600 499.338,319.600 497.037 C 319.600 494.960,319.727 494.400,320.200 494.400 C 320.530 494.400,320.800 494.130,320.800 493.800 C 320.800 493.467,321.156 493.200,321.600 493.200 C 322.133 493.200,322.400 492.933,322.400 492.400 C 322.400 491.818,322.667 491.600,323.376 491.600 C 323.913 491.600,324.471 491.409,324.615 491.175 C 324.760 490.942,325.310 490.586,325.839 490.385 C 326.367 490.184,326.800 489.745,326.800 489.410 C 326.800 489.074,327.070 488.800,327.400 488.800 C 327.733 488.800,328.000 488.444,328.000 488.000 C 328.000 487.467,328.267 487.200,328.800 487.200 C 329.448 487.200,329.600 486.933,329.600 485.800 C 329.600 484.822,329.781 484.400,330.200 484.400 C 330.619 484.400,330.800 483.978,330.800 483.000 C 330.800 481.867,330.952 481.600,331.600 481.600 C 332.369 481.600,332.400 481.333,332.400 474.763 C 332.400 468.262,332.361 467.915,331.600 467.716 C 330.999 467.559,330.800 467.170,330.800 466.153 C 330.800 465.217,330.615 464.800,330.200 464.800 C 329.796 464.800,329.600 464.396,329.600 463.563 C 329.600 462.662,329.383 462.268,328.800 462.116 C 327.643 461.813,327.643 458.987,328.800 458.684 C 329.496 458.502,329.600 458.138,329.600 455.880 C 329.600 453.943,329.752 453.227,330.200 453.055 C 330.703 452.862,330.800 451.632,330.800 445.413 C 330.800 438.443,330.850 437.950,331.630 437.170 C 332.784 436.016,332.673 425.806,331.500 425.151 C 330.876 424.803,330.800 424.023,330.800 418.000 C 330.800 412.513,330.691 411.179,330.220 410.915 C 329.748 410.651,329.603 408.751,329.433 400.596 C 329.318 395.098,329.183 389.970,329.132 389.200 C 329.026 387.589,331.114 383.158,334.689 377.404 C 335.921 375.422,337.395 373.051,337.964 372.136 C 339.098 370.315,342.207 365.032,343.270 363.120 C 343.639 362.457,344.298 361.529,344.734 361.057 C 345.170 360.586,346.258 358.741,347.153 356.957 C 348.048 355.174,349.061 353.481,349.404 353.196 C 349.748 352.911,350.680 351.490,351.475 350.039 C 352.270 348.588,353.501 346.500,354.209 345.400 C 354.918 344.300,356.012 342.410,356.639 341.200 C 357.266 339.990,358.453 337.920,359.275 336.600 C 360.098 335.280,361.285 333.300,361.914 332.200 C 364.196 328.209,364.699 327.373,365.740 325.844 C 366.323 324.988,366.800 324.111,366.800 323.895 C 366.800 323.679,367.584 322.399,368.541 321.051 C 369.499 319.703,370.498 317.939,370.762 317.132 C 371.025 316.325,371.518 315.434,371.856 315.153 C 372.195 314.872,373.359 312.923,374.443 310.821 C 375.528 308.720,376.854 306.280,377.390 305.400 C 377.927 304.520,378.576 303.170,378.833 302.400 C 379.091 301.630,379.539 300.726,379.829 300.392 C 380.120 300.058,380.916 298.438,381.599 296.792 C 382.282 295.146,383.448 292.540,384.190 291.000 C 384.932 289.460,385.844 286.850,386.216 285.200 C 386.588 283.550,387.121 281.750,387.399 281.200 C 387.678 280.650,388.396 278.400,388.994 276.200 C 389.593 274.000,390.535 270.580,391.088 268.600 C 392.321 264.183,393.998 256.273,394.005 254.850 C 394.007 254.272,394.365 252.360,394.800 250.600 C 398.138 237.088,398.426 204.217,395.344 188.600 C 393.894 181.253,393.586 179.611,392.949 175.800 C 392.581 173.600,391.780 170.360,391.168 168.600 C 390.557 166.840,389.951 164.635,389.823 163.700 C 389.567 161.828,389.008 160.031,386.965 154.517 C 386.214 152.492,385.600 150.553,385.600 150.209 C 385.600 149.865,384.895 148.102,384.034 146.292 C 383.173 144.481,382.163 142.010,381.791 140.800 C 381.419 139.590,380.682 137.925,380.152 137.100 C 379.622 136.275,378.824 134.624,378.377 133.430 C 377.930 132.237,377.128 130.617,376.595 129.830 C 376.061 129.044,375.005 127.059,374.247 125.419 C 373.489 123.779,372.424 121.844,371.879 121.119 C 371.334 120.393,370.308 118.630,369.599 117.200 C 368.890 115.770,368.017 114.268,367.660 113.863 C 367.302 113.458,366.557 112.351,366.005 111.404 C 364.281 108.449,357.771 99.306,356.434 97.963 C 356.085 97.612,355.080 96.383,354.200 95.231 C 353.320 94.080,351.340 91.702,349.800 89.949 C 348.260 88.195,346.584 86.184,346.075 85.480 C 345.566 84.776,344.187 83.236,343.011 82.057 C 340.171 79.213,338.870 76.275,340.015 75.294 C 340.952 74.492,341.024 73.772,340.200 73.455 C 339.777 73.293,339.600 72.632,339.600 71.213 C 339.600 69.733,339.388 68.988,338.800 68.400 C 338.314 67.914,338.000 67.067,338.000 66.243 C 338.000 65.405,337.770 64.797,337.400 64.655 C 337.065 64.527,336.800 63.932,336.800 63.309 C 336.800 62.626,336.490 61.999,336.000 61.693 C 335.560 61.418,335.200 60.764,335.200 60.239 C 335.200 59.715,334.947 59.188,334.638 59.070 C 334.328 58.951,333.954 58.302,333.806 57.627 C 333.658 56.952,333.281 56.400,332.968 56.400 C 332.583 56.400,332.400 55.938,332.400 54.963 C 332.400 53.862,332.213 53.476,331.600 53.316 C 330.999 53.159,330.800 52.770,330.800 51.753 C 330.800 50.817,330.615 50.400,330.200 50.400 C 329.796 50.400,329.600 49.996,329.600 49.163 C 329.600 48.262,329.383 47.868,328.800 47.716 C 328.360 47.601,328.000 47.258,328.000 46.953 C 328.000 46.649,327.730 46.400,327.400 46.400 C 327.067 46.400,326.800 46.044,326.800 45.600 C 326.800 45.067,326.533 44.800,326.000 44.800 C 325.414 44.800,325.200 44.533,325.200 43.803 C 325.200 43.240,324.852 42.590,324.400 42.307 C 323.960 42.032,323.600 41.595,323.600 41.336 C 323.600 41.076,323.084 40.750,322.453 40.612 C 321.822 40.473,320.788 39.739,320.155 38.980 C 319.522 38.221,318.778 37.600,318.502 37.600 C 318.226 37.600,318.000 37.330,318.000 37.000 C 318.000 36.581,317.578 36.400,316.600 36.400 C 315.467 36.400,315.200 36.248,315.200 35.600 C 315.200 34.952,314.933 34.800,313.800 34.800 C 312.822 34.800,312.400 34.619,312.400 34.200 C 312.400 33.867,312.044 33.600,311.600 33.600 C 311.067 33.600,310.800 33.333,310.800 32.800 C 310.800 32.152,310.533 32.000,309.400 32.000 C 308.422 32.000,308.000 31.819,308.000 31.400 C 308.000 31.067,307.644 30.800,307.200 30.800 C 306.511 30.800,305.517 30.021,302.366 27.006 C 302.018 26.673,301.253 26.400,300.666 26.400 C 299.975 26.400,299.600 26.184,299.600 25.787 C 299.600 25.451,299.285 25.056,298.900 24.910 C 298.515 24.764,297.962 24.410,297.671 24.122 C 297.381 23.835,296.706 23.600,296.171 23.600 C 295.467 23.600,295.200 23.380,295.200 22.800 C 295.200 22.360,294.949 22.000,294.643 22.000 C 294.336 22.000,293.982 21.730,293.855 21.400 C 293.721 21.049,293.121 20.800,292.413 20.800 C 291.467 20.800,291.200 20.624,291.200 20.000 C 291.200 19.467,290.933 19.200,290.400 19.200 C 289.956 19.200,289.600 18.933,289.600 18.600 C 289.600 18.267,289.244 18.000,288.800 18.000 C 288.360 18.000,288.000 17.749,288.000 17.443 C 288.000 16.831,287.159 16.400,285.967 16.400 C 285.545 16.400,285.200 16.164,285.200 15.875 C 285.200 15.174,283.029 13.600,282.063 13.600 C 281.630 13.600,281.202 13.250,281.084 12.800 C 280.932 12.217,280.538 12.000,279.637 12.000 C 278.804 12.000,278.400 11.804,278.400 11.400 C 278.400 10.981,277.978 10.800,277.000 10.800 C 276.009 10.800,275.600 10.621,275.600 10.187 C 275.600 9.851,275.285 9.459,274.900 9.318 C 274.515 9.176,274.056 8.822,273.880 8.530 C 273.704 8.239,273.050 8.000,272.427 8.000 C 271.630 8.000,271.231 7.763,271.084 7.200 C 270.934 6.625,270.538 6.400,269.680 6.400 C 269.023 6.400,268.389 6.147,268.270 5.838 C 268.151 5.528,267.467 5.147,266.750 4.989 C 266.032 4.831,265.197 4.454,264.894 4.151 C 264.591 3.848,263.657 3.600,262.818 3.600 C 261.630 3.600,261.247 3.424,261.084 2.800 C 260.909 2.132,260.538 2.000,258.837 2.000 C 257.293 2.000,256.800 1.855,256.800 1.400 C 256.800 0.924,256.222 0.800,254.000 0.800 C 252.400 0.800,251.200 0.629,251.200 0.400 C 251.200 0.147,248.333 0.000,243.400 0.000 C 238.467 0.000,235.600 0.147,235.600 0.400 M248.027 15.586 C 249.692 15.798,251.582 16.247,252.227 16.583 C 252.872 16.920,253.771 17.196,254.224 17.198 C 254.676 17.199,255.396 17.464,255.824 17.787 C 256.251 18.110,256.834 18.380,257.121 18.387 C 257.675 18.401,262.609 20.827,265.600 22.558 C 266.590 23.130,267.850 23.826,268.400 24.104 C 270.125 24.975,274.671 27.931,279.400 31.255 C 286.728 36.407,291.633 39.701,297.186 43.200 C 298.758 44.190,300.528 45.313,301.122 45.696 C 301.715 46.078,302.650 46.615,303.200 46.888 C 303.750 47.160,304.290 47.486,304.400 47.611 C 304.510 47.736,305.454 48.332,306.499 48.935 C 309.941 50.924,314.933 55.889,317.112 59.493 C 318.786 62.261,321.995 68.811,321.998 69.468 C 321.999 69.725,322.256 70.445,322.569 71.068 C 323.913 73.742,326.391 83.874,327.200 90.000 C 327.418 91.650,327.872 95.070,328.209 97.600 C 329.475 107.106,329.569 131.905,328.382 143.200 C 328.139 145.510,327.692 150.010,327.389 153.200 C 326.684 160.606,324.508 175.834,323.673 179.200 C 322.797 182.729,321.893 193.411,320.812 213.000 C 320.581 217.180,320.112 222.760,319.771 225.400 C 319.429 228.040,319.060 232.450,318.952 235.200 C 318.844 237.950,318.584 240.920,318.374 241.800 C 318.016 243.302,317.309 251.432,316.374 264.800 C 316.122 268.406,316.013 290.493,316.084 323.200 C 316.171 362.634,316.079 376.651,315.718 379.200 C 313.608 394.081,313.384 412.291,315.252 417.118 C 316.623 420.659,316.443 442.743,315.001 447.987 C 314.671 449.190,314.394 450.630,314.386 451.187 C 314.378 451.744,314.114 452.650,313.800 453.200 C 313.486 453.750,313.222 454.562,313.214 455.003 C 313.206 455.445,312.455 456.946,311.545 458.340 C 308.552 462.919,310.498 470.671,314.788 471.264 C 315.538 471.367,315.965 471.856,316.558 473.288 C 317.763 476.204,316.825 477.687,313.006 478.905 C 310.454 479.719,310.188 479.905,310.067 480.962 C 309.866 482.727,308.627 483.465,305.420 483.732 C 300.520 484.139,299.833 486.496,303.446 490.501 C 307.205 494.668,302.584 496.216,296.000 492.994 C 294.440 492.231,291.157 491.954,288.981 492.401 C 287.891 492.625,286.402 492.922,285.671 493.061 C 278.254 494.472,262.073 482.328,247.746 464.600 C 246.680 463.280,245.589 461.930,245.323 461.600 C 244.381 460.432,238.991 453.275,238.400 452.407 C 238.070 451.922,237.380 450.957,236.868 450.263 C 235.868 448.909,230.448 440.691,229.005 438.341 C 228.622 437.718,224.332 430.353,223.337 428.611 C 223.082 428.165,221.508 425.100,219.839 421.800 C 216.658 415.510,215.905 414.155,211.482 406.750 C 209.987 404.248,208.549 401.840,208.286 401.400 C 208.024 400.960,207.177 399.614,206.405 398.408 C 205.632 397.203,204.864 395.943,204.697 395.608 C 203.697 393.601,193.773 379.275,192.776 378.400 C 191.938 377.664,180.800 361.854,180.800 361.400 C 180.800 361.307,179.810 359.777,178.600 358.000 C 177.390 356.223,176.400 354.679,176.400 354.568 C 176.400 354.458,176.058 353.880,175.641 353.284 C 174.489 351.641,171.041 346.281,170.697 345.600 C 170.530 345.270,169.688 343.920,168.826 342.600 C 167.963 341.280,166.339 338.670,165.217 336.800 C 164.094 334.930,163.012 333.130,162.812 332.800 C 161.729 331.009,157.880 324.174,156.393 321.400 C 155.450 319.640,154.526 317.930,154.339 317.600 C 154.153 317.270,153.819 316.550,153.598 316.000 C 153.377 315.450,151.857 312.480,150.220 309.400 C 148.584 306.320,146.636 302.630,145.893 301.200 C 140.000 289.861,138.516 287.600,136.960 287.600 C 133.902 287.600,133.394 296.647,134.783 326.400 C 135.580 343.471,136.413 364.638,136.806 377.800 C 137.022 385.060,137.369 392.170,137.577 393.600 C 138.529 400.173,138.804 448.054,138.130 489.800 C 137.767 512.252,137.738 512.487,135.219 513.790 C 133.854 514.496,132.921 516.710,132.633 519.922 C 132.283 523.833,130.584 526.295,126.194 529.250 C 114.064 537.414,102.938 533.045,92.290 515.935 C 91.553 514.751,88.408 507.229,88.386 506.600 C 88.379 506.380,88.025 505.480,87.600 504.600 C 87.175 503.720,86.821 502.691,86.814 502.314 C 86.806 501.936,86.555 501.036,86.256 500.314 C 85.274 497.940,84.000 493.815,83.997 493.000 C 83.996 492.560,83.744 491.720,83.438 491.133 C 83.132 490.546,82.755 489.316,82.600 488.400 C 82.445 487.484,82.068 486.254,81.762 485.667 C 81.456 485.080,81.204 484.111,81.202 483.514 C 81.201 482.917,80.946 481.657,80.636 480.714 C 80.327 479.771,79.953 478.370,79.806 477.600 C 79.659 476.830,79.303 475.480,79.014 474.600 C 78.725 473.720,78.281 472.010,78.028 470.800 C 76.920 465.510,75.879 461.074,74.770 456.908 C 74.346 455.318,74.000 453.638,74.000 453.174 C 74.000 452.711,73.735 451.222,73.411 449.866 C 73.087 448.510,72.468 445.690,72.034 443.600 C 71.601 441.510,70.967 438.450,70.625 436.800 C 70.282 435.150,69.828 432.630,69.614 431.200 C 69.401 429.770,69.044 427.430,68.822 426.000 C 67.968 420.507,67.592 417.606,67.007 412.000 C 66.674 408.810,66.301 405.934,66.179 405.609 C 66.056 405.285,65.789 402.111,65.586 398.556 C 65.382 395.002,65.039 391.629,64.823 391.060 C 64.607 390.492,64.248 387.006,64.027 383.313 C 63.805 379.621,63.441 374.350,63.218 371.600 C 62.996 368.850,62.635 363.990,62.418 360.800 C 62.201 357.610,61.838 352.570,61.612 349.600 C 60.215 331.232,59.935 326.788,59.593 317.591 C 59.385 311.977,59.031 306.417,58.807 305.237 C 58.583 304.057,58.398 301.180,58.397 298.845 C 58.395 296.510,58.125 290.820,57.797 286.200 C 57.468 281.580,57.020 273.281,56.800 267.757 C 56.581 262.233,56.221 256.763,56.000 255.602 C 55.780 254.441,55.597 251.580,55.594 249.245 C 55.591 246.910,55.233 240.590,54.800 235.200 C 54.367 229.810,54.002 223.870,53.989 222.000 C 53.976 220.130,53.800 217.790,53.598 216.800 C 53.396 215.810,53.038 211.580,52.802 207.400 C 52.566 203.220,52.110 197.026,51.787 193.636 C 51.464 190.245,51.200 185.907,51.200 183.995 C 51.200 182.084,51.025 179.998,50.812 179.360 C 50.598 178.722,50.241 174.707,50.019 170.439 C 49.099 152.779,46.786 139.386,44.364 137.690 C 40.386 134.903,40.281 130.276,44.122 126.989 C 46.841 124.661,48.569 124.004,55.200 122.780 C 57.541 122.348,64.896 122.352,67.200 122.788 C 68.190 122.974,70.170 123.334,71.600 123.587 C 74.181 124.043,81.682 126.428,83.600 127.403 C 84.150 127.682,86.360 128.786,88.512 129.855 C 92.562 131.869,93.120 132.171,94.800 133.255 C 95.350 133.611,97.097 134.735,98.683 135.753 C 101.288 137.427,107.587 142.265,111.200 145.366 C 121.262 154.004,137.628 173.938,142.262 183.200 C 142.427 183.530,143.059 184.537,143.667 185.437 C 144.275 186.338,144.961 187.508,145.193 188.037 C 145.424 188.567,146.080 189.810,146.651 190.800 C 148.568 194.126,152.400 201.939,152.400 202.524 C 152.400 202.842,152.670 203.326,153.000 203.600 C 153.330 203.874,153.600 204.266,153.600 204.471 C 153.600 204.897,154.920 208.047,155.805 209.732 C 156.132 210.355,156.400 211.056,156.400 211.289 C 156.400 211.522,156.779 212.542,157.243 213.556 C 157.707 214.570,158.323 215.940,158.613 216.600 C 160.013 219.788,162.480 225.065,162.820 225.600 C 163.030 225.930,163.391 226.650,163.622 227.200 C 164.130 228.410,165.501 231.173,166.004 232.000 C 166.205 232.330,166.835 233.590,167.405 234.800 C 168.364 236.838,168.868 237.776,171.900 243.150 C 172.823 244.786,176.266 250.593,179.362 255.735 C 179.781 256.431,180.326 257.360,180.572 257.800 C 180.819 258.240,181.490 259.328,182.064 260.218 C 182.637 261.108,183.623 262.777,184.253 263.928 C 184.884 265.078,185.804 266.690,186.297 267.509 C 186.791 268.329,187.472 269.540,187.811 270.200 C 188.150 270.860,188.835 272.120,189.335 273.000 C 189.834 273.880,191.121 276.220,192.194 278.200 C 193.268 280.180,194.557 282.520,195.059 283.400 C 195.562 284.280,196.240 285.540,196.567 286.200 C 196.894 286.860,198.064 289.020,199.168 291.000 C 200.272 292.980,202.731 297.750,204.632 301.600 C 209.174 310.795,211.178 314.735,212.057 316.200 C 212.453 316.860,213.077 317.940,213.443 318.600 C 214.347 320.230,219.519 327.919,222.188 331.600 C 223.385 333.250,224.866 335.320,225.480 336.200 C 226.094 337.080,228.772 340.590,231.430 344.000 C 236.680 350.733,240.972 356.547,243.244 360.004 C 245.104 362.833,247.600 367.037,247.600 367.340 C 247.600 367.547,250.490 371.950,251.315 373.000 C 251.488 373.220,252.179 374.166,252.850 375.102 C 255.129 378.277,255.171 377.741,253.992 360.600 C 253.538 354.000,252.914 346.260,252.606 343.400 C 251.513 333.262,250.769 325.329,250.394 319.800 C 250.184 316.720,249.830 313.571,249.606 312.803 C 249.383 312.034,249.200 310.319,249.200 308.992 C 249.200 307.665,249.008 305.054,248.773 303.190 C 247.730 294.920,246.751 285.796,246.390 281.000 C 246.176 278.140,245.827 275.350,245.616 274.800 C 245.405 274.250,245.042 271.190,244.809 268.000 C 244.577 264.810,244.214 261.480,244.003 260.600 C 243.792 259.720,243.604 257.650,243.586 256.000 C 243.567 254.350,243.378 252.100,243.166 251.000 C 242.166 245.832,239.222 212.031,239.158 205.000 C 239.135 202.360,238.958 198.310,238.765 196.000 C 237.989 186.671,236.483 140.941,236.007 112.200 C 235.390 75.006,234.841 56.715,234.205 52.200 C 233.895 50.000,233.534 47.210,233.402 46.000 C 233.269 44.790,232.912 42.900,232.606 41.800 C 231.268 36.976,231.059 35.445,230.914 29.405 C 230.692 20.174,232.804 16.758,239.556 15.427 C 242.245 14.897,242.691 14.905,248.027 15.586 M206.600 131.214 C 209.680 131.440,213.640 131.971,215.400 132.394 C 217.160 132.817,219.263 133.279,220.072 133.421 C 221.740 133.713,221.994 134.096,221.653 135.800 C 220.992 139.111,221.388 169.256,222.100 169.777 C 222.747 170.249,222.800 171.513,222.800 186.317 C 222.800 201.995,222.818 202.352,223.600 202.600 C 224.377 202.846,224.400 203.205,224.400 214.827 C 224.400 225.203,224.480 226.800,225.000 226.800 C 225.512 226.800,225.600 227.915,225.600 234.437 C 225.600 241.738,225.635 242.084,226.400 242.284 C 227.161 242.483,227.200 242.830,227.200 249.459 C 227.200 255.282,227.298 256.463,227.800 256.655 C 228.292 256.844,228.401 257.864,228.405 262.343 C 228.411 268.279,228.601 269.600,229.447 269.600 C 229.894 269.600,230.000 270.790,230.000 275.813 C 230.000 280.966,230.102 282.064,230.600 282.255 C 231.095 282.445,231.200 283.491,231.200 288.210 C 231.200 294.183,231.345 295.200,232.200 295.200 C 233.099 295.200,233.595 297.961,232.894 299.061 C 232.204 300.143,224.612 302.800,222.210 302.800 C 221.109 302.800,220.800 302.136,220.800 299.767 C 220.800 298.795,220.620 298.000,220.400 298.000 C 220.180 298.000,220.000 297.443,220.000 296.763 C 220.000 295.862,219.783 295.468,219.200 295.316 C 218.599 295.159,218.400 294.770,218.400 293.753 C 218.400 292.817,218.215 292.400,217.800 292.400 C 217.396 292.400,217.200 291.996,217.200 291.163 C 217.200 290.262,216.983 289.868,216.400 289.716 C 215.799 289.559,215.600 289.170,215.600 288.153 C 215.600 287.236,215.413 286.800,215.018 286.800 C 214.670 286.800,214.331 286.238,214.174 285.400 C 214.023 284.598,213.674 284.000,213.355 284.000 C 213.001 284.000,212.800 283.552,212.800 282.763 C 212.800 281.862,212.583 281.468,212.000 281.316 C 211.399 281.159,211.200 280.770,211.200 279.753 C 211.200 278.817,211.015 278.400,210.600 278.400 C 210.196 278.400,210.000 277.996,210.000 277.163 C 210.000 276.262,209.783 275.868,209.200 275.716 C 208.760 275.601,208.400 275.181,208.400 274.782 C 208.400 274.383,208.130 273.787,207.800 273.457 C 207.470 273.127,207.200 272.484,207.200 272.029 C 207.200 271.467,206.943 271.200,206.400 271.200 C 205.752 271.200,205.600 270.933,205.600 269.800 C 205.600 268.822,205.419 268.400,205.000 268.400 C 204.670 268.400,204.400 268.055,204.400 267.633 C 204.400 266.441,203.969 265.600,203.357 265.600 C 203.034 265.600,202.800 265.192,202.800 264.629 C 202.800 264.094,202.565 263.419,202.278 263.129 C 201.990 262.838,201.636 262.285,201.490 261.900 C 201.344 261.515,200.949 261.200,200.613 261.200 C 200.179 261.200,200.000 260.791,200.000 259.800 C 200.000 258.667,199.848 258.400,199.200 258.400 C 198.552 258.400,198.400 258.133,198.400 257.000 C 198.400 256.022,198.219 255.600,197.800 255.600 C 197.470 255.600,197.200 255.255,197.200 254.833 C 197.200 253.641,196.769 252.800,196.157 252.800 C 195.851 252.800,195.600 252.440,195.600 252.000 C 195.600 251.556,195.333 251.200,195.000 251.200 C 194.581 251.200,194.400 250.778,194.400 249.800 C 194.400 248.667,194.248 248.400,193.600 248.400 C 192.952 248.400,192.800 248.133,192.800 247.000 C 192.800 246.075,192.612 245.600,192.247 245.600 C 191.942 245.600,191.599 245.240,191.484 244.800 C 191.369 244.360,190.988 244.000,190.637 244.000 C 190.176 244.000,190.000 243.614,190.000 242.600 C 190.000 241.642,189.816 241.200,189.418 241.200 C 189.070 241.200,188.731 240.638,188.574 239.800 C 188.423 238.998,188.074 238.400,187.755 238.400 C 187.450 238.400,187.200 238.038,187.200 237.596 C 187.200 237.154,186.840 236.484,186.400 236.107 C 185.960 235.730,185.600 235.102,185.600 234.711 C 185.600 234.320,185.330 234.000,185.000 234.000 C 184.596 234.000,184.400 233.596,184.400 232.763 C 184.400 231.862,184.183 231.468,183.600 231.316 C 183.037 231.169,182.800 230.770,182.800 229.973 C 182.800 229.350,182.571 228.696,182.292 228.520 C 182.012 228.344,181.566 227.705,181.300 227.100 C 181.035 226.495,180.633 226.000,180.409 226.000 C 180.184 226.000,180.000 225.364,180.000 224.587 C 180.000 223.745,179.774 223.088,179.439 222.960 C 179.131 222.841,178.763 222.127,178.621 221.372 C 178.468 220.556,178.128 220.000,177.782 220.000 C 177.398 220.000,177.200 219.579,177.200 218.763 C 177.200 217.862,176.983 217.468,176.400 217.316 C 175.799 217.159,175.600 216.770,175.600 215.753 C 175.600 214.817,175.415 214.400,175.000 214.400 C 174.578 214.400,174.400 213.974,174.400 212.963 C 174.400 211.862,174.213 211.476,173.600 211.316 C 172.952 211.147,172.800 210.770,172.800 209.341 C 172.800 208.140,172.608 207.501,172.200 207.345 C 171.870 207.218,171.600 206.788,171.600 206.390 C 171.600 205.238,171.161 204.400,170.557 204.400 C 170.190 204.400,170.000 203.936,170.000 203.043 C 170.000 202.205,169.770 201.597,169.400 201.455 C 169.044 201.319,168.800 200.717,168.800 199.975 C 168.800 199.062,168.585 198.669,168.000 198.516 C 167.379 198.353,167.200 197.970,167.200 196.802 C 167.200 195.975,166.949 195.090,166.642 194.835 C 166.335 194.580,165.967 193.748,165.824 192.986 C 165.669 192.159,165.329 191.600,164.982 191.600 C 164.598 191.600,164.400 191.179,164.400 190.363 C 164.400 189.462,164.183 189.068,163.600 188.916 C 162.999 188.759,162.800 188.370,162.800 187.353 C 162.800 186.417,162.615 186.000,162.200 186.000 C 161.867 186.000,161.600 185.644,161.600 185.200 C 161.600 184.667,161.333 184.400,160.800 184.400 C 160.152 184.400,160.000 184.133,160.000 183.000 C 160.000 182.022,159.819 181.600,159.400 181.600 C 158.981 181.600,158.800 181.178,158.800 180.200 C 158.800 179.067,158.648 178.800,158.000 178.800 C 157.352 178.800,157.200 178.533,157.200 177.400 C 157.200 176.422,157.019 176.000,156.600 176.000 C 156.267 176.000,156.000 175.644,156.000 175.200 C 156.000 174.667,155.733 174.400,155.200 174.400 C 154.552 174.400,154.400 174.133,154.400 173.000 C 154.400 172.072,154.213 171.600,153.845 171.600 C 153.526 171.600,153.177 171.002,153.026 170.200 C 152.869 169.362,152.530 168.800,152.182 168.800 C 151.862 168.800,151.600 168.440,151.600 168.000 C 151.600 167.560,151.240 166.840,150.800 166.400 C 150.360 165.960,150.000 165.330,150.000 165.000 C 150.000 164.670,149.751 164.400,149.447 164.400 C 149.142 164.400,148.799 164.040,148.684 163.600 C 148.569 163.160,148.188 162.800,147.837 162.800 C 147.401 162.800,147.200 162.435,147.200 161.643 C 147.200 160.983,146.942 160.387,146.600 160.255 C 146.270 160.129,146.000 159.749,146.000 159.413 C 146.000 159.067,145.652 158.800,145.200 158.800 C 144.624 158.800,144.400 158.533,144.400 157.849 C 144.400 156.633,143.600 155.970,142.483 156.262 C 140.973 156.657,140.630 154.875,141.942 153.452 C 143.409 151.860,149.104 147.270,150.519 146.538 C 151.161 146.206,152.770 145.137,154.094 144.162 C 155.419 143.187,156.974 142.275,157.551 142.134 C 158.128 141.994,159.320 141.396,160.200 140.805 C 162.320 139.382,164.106 138.528,165.688 138.181 C 166.401 138.024,168.337 137.272,169.992 136.510 C 173.356 134.960,175.472 134.278,179.000 133.608 C 180.320 133.357,182.840 132.803,184.600 132.378 C 187.517 131.674,193.930 130.997,199.000 130.858 C 200.100 130.828,203.520 130.988,206.600 131.214 " stroke="none" fill="#040404" fill-rule="evenodd"></path></g></svg>